<svg id="eirRj09gKGv1" xmlns="http://www.w3.org/2000/svg" xmlns:xlink="http://www.w3.org/1999/xlink" viewBox="0 0 417 207" shape-rendering="geometricPrecision" text-rendering="geometricPrecision">
<style><![CDATA[
#eirRj09gKGv11_ts {animation: eirRj09gKGv11_ts__ts 2100ms linear infinite normal forwards}@keyframes eirRj09gKGv11_ts__ts { 0% {transform: translate(125.165001px,111.918835px) scale(0.146793,0.146788)} 47.619048% {transform: translate(125.165001px,111.918835px) scale(0.164843,0.164843)} 100% {transform: translate(125.165001px,111.918835px) scale(0.146783,0.146788)}}
]]></style>
<g><path d="M136.29,0h15.48c7.47,1.11,15.54,3.5,20.15,9.93c4.84,6.22,4.64,14.68,3.28,22.05-.57,1.43-.48,3.83-2.34,4.22-1.14-6.93-3.84-14.04-9.71-18.33-10.81-7.98-25.2-9.15-38.08-7.05-18.29,3.26-35.22,11.63-50.68,21.66-2.01,1.4-4.11,2.67-6.38,3.58C86.64,17.87,110.39,4.21,136.29,0Z" transform="matrix(.907688 0 0 0.907683 11.264229 1.670938)" fill="#b55a45"/><path d="M63.23,41.35c14.88-.64,29.83-.08,44.73-.26c11.86-.28,24,2.04,34.42,7.86.15,2.77-.78,5.45-1.59,8.05-2.57,8.05-6.43,15.63-10.68,22.9-1.55-.67-2.07-2.61-3.28-3.73-5.03-5.4-12.54-8.28-19.86-8.19-22.75-.23-45.5.37-68.24-.31.51-1.06,1.18-2.04,2.02-2.87c4.47-4.58,8.58-9.49,13.13-13.99c3.15-3.12,5.74-6.84,9.35-9.46Z" fill="#b55a45"/><path d="M36.5,79.41c10.39-.65,20.9-.15,31.34-.22-1.51,12.33-4.29,24.44-6.19,36.7c13.03.24,26.06-.16,39.08.24-7.5,7.75-16.28,14.28-25.15,20.44-4.21,2.57-8.29,6.38-13.61,5.86-12.28-.3-24.6.46-36.86-.36c3.97-20.85,7.3-41.83,11.39-62.66Z" fill="#b55a45"/><path d="M289.81,130.02c4.89.06,9.8-.31,14.66.25.71,12.62,1.49,25.29,3,37.84c1.18-12.73,2.72-25.43,4.52-38.1c4.86.03,9.72-.19,14.57.15.9,11.64,2.2,23.25,3.08,34.9.09,1.65.45,3.28.87,4.88.46-13.34,2.13-26.61,3.82-39.85c4.84-.13,9.7-.2,14.54.03-2.35,18.93-4.68,37.87-6.94,56.82-6,.14-12,.06-18,.03-1.82-9.91-3.7-19.86-4.5-29.91-.54,1.23-.94,2.52-1.04,3.87-1.04,8.67-2.59,17.28-3.71,25.94-6.04.1-12.11.42-18.13-.16-1.82-18.94-4.55-37.79-6.74-56.69Z" fill="#b55a45"/><path d="M351.9,130c8.26.11,16.54-.26,24.8.2-.14,3.54-.15,7.09-.03,10.64-3.3.23-6.59.19-9.89.21-.1,3.64-.07,7.29-.02,10.94c3.05,0,6.09.01,9.14.04-.03,3.65-.04,7.29.01,10.93-3.04.03-6.09.05-9.13.07-.12,4.32-.04,8.64-.04,12.96c3.65.02,7.3-.07,10.94.14-.14,3.58-.13,7.16.04,10.74-8.61.28-17.22.08-25.83.11-.03-18.99-.05-37.99.01-56.98Z" fill="#b55a45"/><path d="M381.85,130c7.99.28,16.09-.72,24,.74c4.27.56,7.91,4.04,8.81,8.23.83,4.07,1.22,8.46-.18,12.46-.99,2.45-3.83,3.05-6,3.97c4.6,1.4,8.42,5.49,7.7,10.59-.87,5.58,1.64,11.63-1.48,16.76-1.78,3.5-6.12,3.91-9.59,4.15-7.73.27-15.47-.03-23.2.15-.11-19.02,0-38.03-.06-57.05m14.9,9.92c-.05,4.06-.02,8.11.02,12.17c1.7-.09,4.21.2,4.57-2.09.32-2.62.39-5.32-.09-7.93-.39-2.24-2.82-1.96-4.5-2.15m.01,20.97c-.05,5.41-.05,10.83.01,16.25c1.53-.41,4-.24,4.48-2.21.54-4.36.41-8.81-.11-13.16-1.45-.34-2.92-.63-4.38-.88Z" fill="#b55a45"/><path d="M257.23,159.09c6.26-.22,12.54-.1,18.81-.05-.04,3.31-.04,6.61-.01,9.92-6.27.03-12.55.19-18.81-.07.07-3.27.06-6.53.01-9.8Z" fill="#b55a45"/></g><g transform="matrix(5.463004 0 0 5.463009-554.838144-500.63864)"><g id="eirRj09gKGv11_ts" transform="translate(125.165001,111.918835) scale(0.146793,0.146788)"><path d="M123.6,18.61c5.54-2.1,11.58-1.82,17.39-1.67c8.67.32,17.33,4.71,21.68,12.41c5.63,9.92,4.52,22.04,1.88,32.71-.67,3.96-3.25,7.8-1.96,11.9c3.2,11.78.2,24.5-6.15,34.7c8.67-1.98,17.61-2.77,26.49-2.6c22.47.07,44.93-.11,67.4.09-6.04,7.91-13.41,14.67-20.17,21.93-1.71,1.65-3.11,3.68-5.14,4.96-15.98.24-31.98.05-47.96.09-7.7-.27-15.6.88-22.48,4.49-7.2,3.62-13.35,10.22-14.82,18.33-1.22,5.44-.41,11.63,3.29,15.98c5.04,6.12,13.14,9.12,20.95,9.04c12.89.12,25.79.24,38.68-.06.76-4.49,1.34-9.01,2.36-13.45-10.32-.89-20.66.2-30.99-.01-7.19.15-14.36-.46-21.54-.38c7.13-7.37,14.57-14.46,21.75-21.79c1.34-1.85,3.71-1.39,5.69-1.45c20.3.13,40.61-.11,60.91.12-3.73,21.02-7.48,42.03-11.21,63.05h-80.31c-12.8-2.51-25.39-8.45-33.56-18.92-10.05-12.92-10.94-31.61-3.95-46.14-19.99,17.59-42.53,33.78-68.8,40.11-9.66,2.11-20.27,2.91-29.38-1.62C5.95,176.77,1.24,168.75,0,160.52v-13.25C1.77,134.82,6.34,122.86,12.59,112c-1.17,8.66-4.97,17.18-3.24,26.11.75,7.99,6.04,15.45,13.8,17.95c10.55,3.39,21.88.59,31.95-3.12c15.62-6.19,29.78-15.67,42.41-26.68c15.4-13.34,28.78-29.16,38.76-46.96c6.18-11.79,11.74-24.7,10.98-38.28-.12-7.87-4.29-16.09-11.75-19.33-3.7-1.97-8.02-1.72-11.9-3.08Z" transform="translate(-125.165001,-111.918835)"/></g></g></svg>
