<?xml version="1.0"?>
<svg width="417" height="207" xmlns="http://www.w3.org/2000/svg" xmlns:svg="http://www.w3.org/2000/svg">
 <style>
  <![CDATA[
#eirRj09gKGv11_ts {animation: eirRj09gKGv11_ts__ts 2100ms linear infinite normal forwards}@keyframes eirRj09gKGv11_ts__ts { 0% {transform: translate(125.165001px,111.918835px) scale(0.146793,0.146788)} 47.619048% {transform: translate(125.165001px,111.918835px) scale(0.164843,0.164843)} 100% {transform: translate(125.165001px,111.918835px) scale(0.146783,0.146788)}}
]]>
 </style>
 <g class="layer">
  <title>Layer 1</title>
  <g id="svg_1">
   <path d="m117.71,1.67l14.91,0c7.2,1.12 14.97,3.54 19.41,10.03c4.66,6.29 4.47,14.83 3.16,22.28c-0.55,1.45 -0.46,3.87 -2.25,4.26c-1.1,-7 -3.7,-14.19 -9.35,-18.52c-10.41,-8.06 -24.28,-9.25 -36.69,-7.12c-17.62,3.29 -33.93,11.75 -48.82,21.89c-1.94,1.41 -3.96,2.7 -6.15,3.62c17.95,-18.38 40.83,-32.18 65.78,-36.44z" fill="#b55a45" id="svg_2"/>
   <path d="m41.57,45.84c15.79,-0.71 31.66,-0.09 47.47,-0.29c12.59,-0.31 25.47,2.27 36.53,8.75c0.16,3.08 -0.83,6.07 -1.69,8.96c-2.73,8.96 -6.82,17.4 -11.34,25.49c-1.65,-0.75 -2.2,-2.91 -3.48,-4.15c-5.34,-6.01 -13.31,-9.22 -21.08,-9.12c-24.15,-0.26 -48.29,0.41 -72.43,-0.35c0.54,-1.18 1.25,-2.27 2.14,-3.2c4.74,-5.1 9.11,-10.57 13.94,-15.57c3.34,-3.47 6.09,-7.61 9.92,-10.53z" fill="#b55a45" id="svg_3"/>
   <path d="m13.2,88.22c11.03,-0.72 22.18,-0.17 33.26,-0.24c-1.6,13.73 -4.55,27.21 -6.57,40.86c13.83,0.27 27.66,-0.18 41.48,0.27c-7.96,8.63 -17.28,15.9 -26.69,22.76c-4.47,2.86 -8.8,7.1 -14.44,6.52c-13.03,-0.33 -26.11,0.51 -39.12,-0.4c4.21,-23.21 7.75,-46.57 12.09,-69.76z" fill="#b55a45" id="svg_4"/>
   <path d="m282.05,144.56c5.19,0.07 10.4,-0.35 15.56,0.28c0.75,14.05 1.58,28.15 3.18,42.13c1.25,-14.17 2.89,-28.31 4.8,-42.42c5.16,0.03 10.32,-0.21 15.46,0.17c0.96,12.96 2.33,25.88 3.27,38.85c0.1,1.84 0.48,3.65 0.92,5.43c0.49,-14.85 2.26,-29.62 4.05,-44.36c5.14,-0.14 10.3,-0.22 15.43,0.03c-2.49,21.07 -4.97,42.16 -7.37,63.26c-6.37,0.16 -12.74,0.07 -19.1,0.03c-1.93,-11.03 -3.93,-22.11 -4.78,-33.3c-0.57,1.37 -1,2.81 -1.1,4.31c-1.1,9.65 -2.75,19.24 -3.94,28.88c-6.41,0.11 -12.85,0.47 -19.24,-0.18c-1.93,-21.09 -4.83,-42.07 -7.15,-63.11z" fill="#b55a45" id="svg_5"/>
   <path d="m347.95,144.54c8.77,0.12 17.55,-0.29 26.32,0.22c-0.15,3.94 -0.16,7.89 -0.03,11.85c-3.5,0.26 -6.99,0.21 -10.5,0.23c-0.11,4.05 -0.07,8.12 -0.02,12.18c3.24,0 6.46,0.01 9.7,0.04c-0.03,4.06 -0.04,8.12 0.01,12.17c-3.23,0.03 -6.46,0.06 -9.69,0.08c-0.13,4.81 -0.04,9.62 -0.04,14.43c3.87,0.02 7.75,-0.08 11.61,0.16c-0.15,3.99 -0.14,7.97 0.04,11.96c-9.14,0.31 -18.28,0.09 -27.41,0.12c-0.03,-21.14 -0.05,-42.29 0.01,-63.43z" fill="#b55a45" id="svg_6"/>
   <path d="m379.74,144.54c8.48,0.31 17.08,-0.8 25.47,0.82c4.53,0.62 8.4,4.5 9.35,9.16c0.88,4.53 1.29,9.42 -0.19,13.87c-1.05,2.73 -4.06,3.4 -6.37,4.42c4.88,1.56 8.94,6.11 8.17,11.79c-0.92,6.21 1.74,12.95 -1.57,18.66c-1.89,3.9 -6.5,4.35 -10.18,4.62c-8.2,0.3 -16.42,-0.03 -24.62,0.17c-0.12,-21.17 0,-42.34 -0.06,-63.51m15.81,11.04c-0.05,4.52 -0.02,9.03 0.02,13.55c1.8,-0.1 4.47,0.22 4.85,-2.33c0.34,-2.92 0.41,-5.92 -0.1,-8.83c-0.41,-2.49 -2.99,-2.18 -4.78,-2.39m0.01,23.35c-0.05,6.02 -0.05,12.06 0.01,18.09c1.62,-0.46 4.25,-0.27 4.75,-2.46c0.57,-4.85 0.44,-9.81 -0.12,-14.65c-1.54,-0.38 -3.1,-0.7 -4.65,-0.98z" fill="#b55a45" id="svg_7"/>
   <path d="m247.47,176.92c6.64,-0.24 13.31,-0.11 19.96,-0.06c-0.04,3.68 -0.04,7.36 -0.01,11.04c-6.65,0.03 -13.32,0.21 -19.96,-0.08c0.07,-3.64 0.06,-7.27 0.01,-10.91z" fill="#b55a45" id="svg_8"/>
  </g>
  <g id="svg_9" transform="matrix(5.463004 0 0 5.463009-554.838144-500.63864)">
   <g id="eirRj09gKGv11_ts" transform="translate(125.165001,111.918835) scale(0.146793,0.146788)">
    <path d="m123.6,18.61c5.54,-2.1 11.58,-1.82 17.39,-1.67c8.67,0.32 17.33,4.71 21.68,12.41c5.63,9.92 4.52,22.04 1.88,32.71c-0.67,3.96 -3.25,7.8 -1.96,11.9c3.2,11.78 0.2,24.5 -6.15,34.7c8.67,-1.98 17.61,-2.77 26.49,-2.6c22.47,0.07 44.93,-0.11 67.4,0.09c-6.04,7.91 -13.41,14.67 -20.17,21.93c-1.71,1.65 -3.11,3.68 -5.14,4.96c-15.98,0.24 -31.98,0.05 -47.96,0.09c-7.7,-0.27 -15.6,0.88 -22.48,4.49c-7.2,3.62 -13.35,10.22 -14.82,18.33c-1.22,5.44 -0.41,11.63 3.29,15.98c5.04,6.12 13.14,9.12 20.95,9.04c12.89,0.12 25.79,0.24 38.68,-0.06c0.76,-4.49 1.34,-9.01 2.36,-13.45c-10.32,-0.89 -20.66,0.2 -30.99,-0.01c-7.19,0.15 -14.36,-0.46 -21.54,-0.38c7.13,-7.37 14.57,-14.46 21.75,-21.79c1.34,-1.85 3.71,-1.39 5.69,-1.45c20.3,0.13 40.61,-0.11 60.91,0.12c-3.73,21.02 -7.48,42.03 -11.21,63.05l-80.31,0c-12.8,-2.51 -25.39,-8.45 -33.56,-18.92c-10.05,-12.92 -10.94,-31.61 -3.95,-46.14c-19.99,17.59 -42.53,33.78 -68.8,40.11c-9.66,2.11 -20.27,2.91 -29.38,-1.62c-7.7,-3.66 -12.41,-11.68 -13.65,-19.91l0,-13.25c1.77,-12.45 6.34,-24.41 12.59,-35.27c-1.17,8.66 -4.97,17.18 -3.24,26.11c0.75,7.99 6.04,15.45 13.8,17.95c10.55,3.39 21.88,0.59 31.95,-3.12c15.62,-6.19 29.78,-15.67 42.41,-26.68c15.4,-13.34 28.78,-29.16 38.76,-46.96c6.18,-11.79 11.74,-24.7 10.98,-38.28c-0.12,-7.87 -4.29,-16.09 -11.75,-19.33c-3.7,-1.97 -8.02,-1.72 -11.9,-3.08z" id="svg_10" transform="translate(-125.165001,-111.918835)"/>
   </g>
  </g>
 </g>
</svg>