<?xml version="1.0" encoding="UTF-8" ?>
<!DOCTYPE svg PUBLIC "-//W3C//DTD SVG 1.1//EN" "http://www.w3.org/Graphics/SVG/1.1/DTD/svg11.dtd">
<svg width="1247pt" height="230pt" viewBox="0 0 1247 230" version="1.1" xmlns="http://www.w3.org/2000/svg">
<g id="#ffffffff">
<path fill="#ffffff" stroke="#ffffff" stroke-width="0.09375" opacity="1.00" d=" M 0.00 0.00 L 1247.00 0.00 L 1247.00 107.28 C 1244.64 116.28 1244.48 125.73 1247.00 134.71 L 1247.00 230.00 L 0.00 230.00 L 0.00 0.00 M 269.11 44.03 C 268.56 51.86 268.61 59.71 268.53 67.55 C 276.51 68.31 284.55 68.49 292.54 67.69 C 292.58 59.84 292.95 51.99 292.96 44.14 C 285.01 44.03 277.06 43.99 269.11 44.03 M 323.78 45.51 C 322.48 53.10 323.13 60.88 323.15 68.55 C 330.95 68.49 338.75 68.53 346.56 68.51 C 346.95 60.72 347.20 52.91 346.82 45.10 C 341.15 44.82 335.49 44.43 329.82 44.36 C 327.79 44.44 325.53 44.29 323.78 45.51 M 350.41 45.30 C 350.10 53.06 350.06 60.83 350.36 68.59 C 358.14 68.75 365.93 68.87 373.71 68.81 C 374.04 60.93 374.35 53.03 373.92 45.15 C 366.09 44.65 358.22 44.54 350.41 45.30 M 377.48 45.42 C 377.40 53.25 377.34 61.07 377.36 68.90 C 385.32 69.52 393.32 69.42 401.30 69.29 C 401.39 61.35 401.46 53.41 401.32 45.47 C 393.37 45.32 385.42 45.26 377.48 45.42 M 404.49 45.97 C 404.75 53.67 404.48 61.37 404.27 69.07 C 412.29 69.57 420.35 69.78 428.37 69.12 C 428.28 61.46 428.54 53.81 428.56 46.15 C 420.57 45.09 412.50 45.34 404.49 45.97 M 431.67 46.16 C 431.53 53.90 431.50 61.65 431.58 69.40 C 439.52 69.90 447.50 70.02 455.43 69.28 C 455.53 61.62 455.71 53.95 455.61 46.28 C 447.65 45.72 439.63 45.22 431.67 46.16 M 513.36 47.22 C 512.65 54.96 512.50 62.74 513.31 70.48 C 521.10 70.71 528.90 70.75 536.70 70.61 C 537.04 62.75 537.06 54.88 536.97 47.02 C 529.10 46.67 521.21 46.30 513.36 47.22 M 540.38 47.33 C 540.14 55.12 540.09 62.93 540.22 70.73 C 548.08 70.85 555.94 71.12 563.81 71.01 C 564.31 63.07 564.40 55.11 563.92 47.17 C 556.07 46.64 548.21 46.64 540.38 47.33 M 567.53 47.41 C 567.48 55.25 567.34 63.09 567.23 70.93 C 575.05 71.35 582.87 71.45 590.70 71.36 C 591.07 65.28 591.48 59.20 591.45 53.10 C 591.37 51.53 591.39 49.86 590.62 48.43 C 588.90 47.40 586.82 47.40 584.89 47.30 C 579.10 47.25 573.31 47.35 567.53 47.41 M 594.87 48.68 C 593.88 56.23 594.73 63.90 594.39 71.50 C 602.16 71.57 609.94 71.72 617.71 71.54 C 618.54 63.77 618.66 55.94 618.12 48.14 C 613.09 47.89 608.06 47.60 603.03 47.51 C 600.28 47.49 597.38 47.41 594.87 48.68 M 622.08 48.04 C 621.48 55.91 621.23 63.83 621.95 71.71 C 629.68 71.74 637.41 71.89 645.14 71.75 C 645.67 63.89 645.86 55.99 645.18 48.13 C 637.48 47.77 629.78 47.76 622.08 48.04 M 649.27 48.36 C 648.53 56.19 648.59 64.06 649.03 71.90 C 656.90 72.33 664.80 72.41 672.67 71.94 C 672.47 64.11 672.79 56.27 672.62 48.43 C 664.84 48.26 657.05 48.29 649.27 48.36 M 676.17 48.52 C 675.84 56.37 675.66 64.23 676.02 72.08 C 683.86 72.75 691.76 72.78 699.61 72.12 C 699.77 64.36 699.89 56.61 699.80 48.86 C 691.93 48.36 684.05 48.45 676.17 48.52 M 703.29 49.00 C 703.11 56.81 702.70 64.62 703.23 72.42 C 711.02 72.77 718.86 73.45 726.61 72.23 C 726.94 64.56 727.26 56.89 726.89 49.21 C 719.03 48.69 711.15 48.44 703.29 49.00 M 757.78 49.40 C 756.93 57.42 757.24 65.48 757.39 73.52 C 764.53 73.19 771.70 73.78 778.82 73.21 C 781.01 73.27 780.99 70.63 781.15 69.07 C 781.47 62.51 781.13 55.94 780.92 49.39 C 773.21 49.29 765.49 49.46 757.78 49.40 M 785.24 50.39 C 783.43 57.94 784.47 65.85 784.86 73.53 C 792.52 73.50 800.19 73.65 807.85 73.79 C 808.38 65.77 808.54 57.74 808.12 49.72 C 800.50 50.08 792.77 48.92 785.24 50.39 M 811.85 50.01 C 811.38 57.88 811.34 65.77 811.70 73.65 C 819.56 73.81 827.42 74.30 835.29 74.29 C 835.45 66.39 835.57 58.48 835.48 50.57 C 827.62 49.87 819.73 49.43 811.85 50.01 M 839.04 50.71 C 838.68 58.44 838.51 66.17 838.88 73.90 C 846.73 74.31 854.61 74.60 862.47 73.98 C 862.53 66.28 862.66 58.59 862.74 50.89 C 854.85 50.17 846.93 50.09 839.04 50.71 M 893.12 51.08 C 892.74 58.95 892.70 66.83 893.07 74.70 C 900.92 74.89 908.79 74.95 916.64 74.58 C 917.39 66.81 917.36 59.00 916.65 51.24 C 908.82 50.61 900.95 50.68 893.12 51.08 M 920.42 51.41 C 920.09 59.18 919.87 66.97 920.22 74.74 C 928.08 75.43 935.99 75.38 943.87 74.91 C 944.29 67.11 944.44 59.29 943.79 51.51 C 936.00 51.31 928.21 51.12 920.42 51.41 M 974.53 51.62 C 974.43 59.59 974.34 67.55 974.44 75.52 C 982.43 75.68 990.42 75.75 998.42 75.57 C 998.38 67.74 998.42 59.90 998.58 52.06 C 990.57 51.44 982.55 51.64 974.53 51.62 M 1002.15 52.04 C 1001.50 59.89 1001.41 67.77 1001.50 75.64 C 1009.29 76.16 1017.10 76.21 1024.91 75.94 C 1025.63 68.12 1025.42 60.26 1025.62 52.42 C 1017.79 52.13 1009.97 51.80 1002.15 52.04 M 1029.33 52.39 C 1028.38 60.34 1028.52 68.34 1028.54 76.33 C 1036.27 76.22 1044.02 76.41 1051.76 76.51 C 1052.89 68.54 1052.88 60.46 1052.28 52.45 C 1044.63 52.55 1036.98 52.39 1029.33 52.39 M 1056.04 52.85 C 1055.82 60.76 1055.81 68.68 1056.00 76.60 C 1063.69 76.57 1071.38 76.64 1079.08 76.63 C 1079.94 68.89 1079.91 61.08 1079.63 53.31 C 1071.79 52.59 1063.90 52.34 1056.04 52.85 M 1083.42 53.24 C 1083.10 61.05 1082.80 68.87 1083.07 76.69 C 1090.89 76.79 1098.72 77.25 1106.54 76.82 C 1106.77 68.94 1106.93 61.07 1106.76 53.19 C 1098.98 52.69 1091.18 52.59 1083.42 53.24 M 1110.33 53.84 C 1110.13 61.53 1109.86 69.23 1110.05 76.93 C 1117.98 77.26 1125.95 77.61 1133.89 76.95 C 1134.18 69.27 1134.23 61.58 1133.88 53.90 C 1126.04 53.31 1118.16 52.89 1110.33 53.84 M 1137.43 53.53 C 1137.38 61.51 1137.26 69.50 1137.40 77.48 C 1145.38 77.54 1153.36 77.61 1161.34 77.48 C 1161.29 69.68 1161.33 61.88 1161.48 54.08 C 1153.48 53.25 1145.44 53.46 1137.43 53.53 M 1164.42 54.07 C 1164.49 61.95 1164.35 69.84 1164.35 77.73 C 1172.23 78.03 1180.11 77.94 1187.99 77.82 C 1188.11 71.38 1188.56 64.94 1188.49 58.50 C 1188.34 57.06 1188.46 54.81 1186.61 54.46 C 1179.31 53.05 1171.80 54.02 1164.42 54.07 M 1191.61 54.47 C 1191.61 62.26 1191.22 70.07 1191.83 77.85 C 1199.55 78.35 1207.31 78.39 1215.04 77.87 C 1215.62 69.97 1215.79 62.02 1215.10 54.12 C 1207.26 54.05 1199.43 54.07 1191.61 54.47 M 268.42 71.35 C 268.46 79.15 268.52 86.96 268.38 94.76 C 276.19 95.24 284.03 95.49 291.85 95.05 C 292.39 87.16 292.69 79.24 292.18 71.34 C 284.26 71.31 276.34 71.08 268.42 71.35 M 295.92 71.37 C 295.38 79.38 295.30 87.42 295.96 95.43 C 303.64 95.18 311.33 95.81 319.00 95.22 C 319.64 87.36 319.54 79.48 319.50 71.60 C 311.64 71.49 303.78 71.47 295.92 71.37 M 323.22 71.51 C 322.32 79.53 322.50 87.60 322.73 95.65 C 330.66 95.58 338.59 95.70 346.52 95.64 C 346.64 87.62 346.66 79.59 346.64 71.57 C 338.83 71.71 331.02 71.63 323.22 71.51 M 350.45 72.21 C 349.95 80.06 349.68 87.92 350.05 95.78 C 357.88 96.21 365.73 96.26 373.57 96.33 C 373.85 88.33 373.85 80.34 373.72 72.34 C 365.96 72.11 358.20 71.71 350.45 72.21 M 377.41 72.43 C 376.93 79.61 376.10 86.87 376.94 94.06 C 376.86 96.35 379.41 96.39 381.05 96.47 C 387.55 96.59 394.06 96.34 400.57 96.50 C 400.75 88.61 401.30 80.73 401.14 72.84 C 393.24 72.33 385.32 72.36 377.41 72.43 M 404.32 72.96 C 404.29 80.72 403.99 88.47 404.01 96.23 C 411.84 96.83 419.70 96.72 427.55 96.62 C 428.26 88.81 428.36 80.95 427.92 73.11 C 420.06 72.58 412.18 72.39 404.32 72.96 M 431.39 72.92 C 431.40 80.81 431.32 88.69 431.29 96.58 C 439.17 97.18 447.08 97.52 454.96 96.78 C 455.55 88.99 455.66 81.17 454.94 73.38 C 447.09 73.33 439.24 72.46 431.39 72.92 M 458.90 73.31 C 458.69 81.06 457.41 89.00 459.12 96.64 C 466.70 97.86 474.42 97.26 482.06 97.10 C 482.45 89.15 482.67 81.18 482.06 73.24 C 474.34 73.48 466.62 73.43 458.90 73.31 M 486.10 74.00 C 485.95 81.52 484.38 89.27 486.32 96.67 C 489.79 97.84 493.52 97.58 497.13 97.64 C 500.93 97.59 504.77 97.90 508.55 97.30 C 509.69 94.82 509.54 92.02 509.60 89.36 C 509.55 84.22 509.61 79.09 509.63 73.95 C 501.80 73.38 493.93 73.29 486.10 74.00 M 539.92 74.24 C 539.60 82.07 539.56 89.90 539.79 97.74 C 547.71 98.44 555.68 98.65 563.61 97.90 C 563.65 90.07 563.80 82.25 563.85 74.42 C 555.87 74.31 547.89 74.29 539.92 74.24 M 621.84 75.03 C 621.15 82.99 621.21 90.97 621.25 98.94 C 629.13 99.10 637.01 99.10 644.89 98.96 C 645.36 91.02 645.46 83.06 644.91 75.12 C 637.21 75.12 629.53 74.93 621.84 75.03 M 648.43 75.78 C 648.65 83.47 648.53 91.15 648.35 98.84 C 656.26 99.40 664.20 99.22 672.12 99.47 C 672.40 91.60 672.61 83.71 672.01 75.85 C 664.17 75.18 656.26 74.64 648.43 75.78 M 703.02 76.11 C 702.56 83.92 702.55 91.75 702.54 99.57 C 710.49 99.91 718.46 100.22 726.42 99.70 C 726.47 91.92 726.50 84.14 726.60 76.36 C 718.75 75.69 710.88 75.70 703.02 76.11 M 729.87 76.31 C 729.53 84.23 729.51 92.16 729.96 100.07 C 737.82 100.39 745.73 100.82 753.58 99.87 C 753.56 92.06 754.02 84.25 753.70 76.44 C 745.75 76.35 737.81 76.30 729.87 76.31 M 811.46 77.36 C 811.36 85.16 811.23 92.95 811.16 100.75 C 818.45 101.19 825.80 101.88 833.10 101.20 C 834.80 101.40 835.09 99.27 835.23 98.05 C 835.67 91.20 835.22 84.32 835.45 77.45 C 827.45 77.29 819.46 77.28 811.46 77.36 M 838.86 77.35 C 838.36 85.20 838.44 93.08 838.31 100.95 C 846.10 101.58 853.91 101.44 861.72 101.47 C 862.74 93.80 862.52 86.05 862.54 78.33 C 854.69 77.19 846.75 77.57 838.86 77.35 M 892.52 78.27 C 892.64 86.12 892.53 93.98 892.52 101.84 C 900.52 101.64 908.51 102.51 916.52 101.98 C 916.57 94.11 916.66 86.24 916.56 78.37 C 908.54 78.54 900.53 77.54 892.52 78.27 M 920.07 78.78 C 919.74 86.50 919.66 94.23 920.08 101.95 C 927.94 102.38 935.81 102.40 943.67 102.00 C 943.85 94.15 944.15 86.29 943.74 78.45 C 935.85 78.55 927.94 78.06 920.07 78.78 M 974.31 78.92 C 974.30 86.81 974.19 94.70 974.26 102.59 C 982.05 102.71 989.85 102.99 997.65 102.90 C 997.82 94.99 998.45 87.10 998.21 79.19 C 990.25 78.60 982.27 78.60 974.31 78.92 M 1001.28 79.27 C 1001.44 87.10 1001.30 94.94 1001.27 102.77 C 1009.11 103.36 1016.98 103.45 1024.83 102.91 C 1025.33 95.03 1025.37 87.13 1025.00 79.25 C 1017.09 79.36 1009.19 79.32 1001.28 79.27 M 1028.79 79.39 C 1028.32 87.36 1028.36 95.36 1028.49 103.34 C 1036.24 103.51 1043.99 103.55 1051.74 103.48 C 1052.45 95.51 1052.68 87.48 1051.87 79.51 C 1044.17 79.62 1036.48 79.62 1028.79 79.39 M 1056.18 79.68 C 1055.19 87.59 1055.29 95.58 1055.89 103.52 C 1063.64 103.58 1071.38 103.76 1079.13 103.85 C 1079.55 95.96 1079.70 88.05 1079.09 80.16 C 1071.46 79.73 1063.82 79.63 1056.18 79.68 M 1083.08 80.29 C 1082.62 88.12 1082.41 95.97 1082.82 103.80 C 1090.51 104.02 1098.29 104.92 1105.95 103.73 C 1107.48 96.08 1106.17 88.19 1106.65 80.44 C 1098.80 79.98 1090.93 79.92 1083.08 80.29 M 1136.89 80.83 C 1136.66 88.76 1136.49 96.70 1137.00 104.63 C 1144.87 104.55 1152.74 104.62 1160.62 104.67 C 1160.64 96.83 1161.01 88.99 1160.90 81.15 C 1152.91 80.49 1144.89 80.41 1136.89 80.83 M 1164.25 81.28 C 1163.97 89.07 1164.07 96.87 1164.24 104.67 C 1172.03 104.92 1179.84 105.21 1187.63 104.72 C 1188.34 96.98 1188.43 89.18 1187.68 81.44 C 1179.87 81.15 1172.05 80.74 1164.25 81.28 M 1191.43 81.50 C 1191.12 89.24 1191.20 97.00 1191.43 104.75 C 1199.23 105.58 1207.09 105.51 1214.91 104.95 C 1215.28 97.12 1215.44 89.27 1214.75 81.46 C 1206.97 81.41 1199.19 81.12 1191.43 81.50 M 1218.82 82.00 C 1218.27 89.61 1218.19 97.25 1218.34 104.88 C 1226.17 106.00 1234.09 105.81 1241.95 105.15 C 1242.38 97.44 1242.43 89.71 1242.04 82.00 C 1234.30 81.56 1226.54 81.24 1218.82 82.00 M 268.45 98.42 C 268.10 106.24 267.89 114.07 268.26 121.89 C 276.10 122.34 283.97 122.63 291.80 121.96 C 292.31 114.11 292.42 106.23 291.72 98.38 C 283.96 98.40 276.21 98.35 268.45 98.42 M 295.34 99.02 C 295.39 106.65 295.18 114.29 295.48 121.93 C 303.19 122.96 310.97 122.47 318.72 122.64 C 319.44 114.78 319.37 106.88 318.99 99.00 C 311.11 98.70 303.21 98.41 295.34 99.02 M 322.82 98.96 C 322.31 106.86 322.21 114.78 322.77 122.67 C 328.18 122.62 333.59 122.74 338.99 123.01 C 341.35 123.03 343.89 123.30 346.08 122.20 C 347.07 114.59 346.15 106.85 346.53 99.18 C 338.64 98.57 330.72 98.58 322.82 98.96 M 350.11 99.21 C 349.53 107.02 349.42 114.86 349.53 122.69 C 357.51 123.37 365.52 123.49 373.50 122.79 C 373.54 115.04 373.58 107.29 373.53 99.54 C 365.73 99.19 357.92 99.13 350.11 99.21 M 377.31 99.55 C 376.55 107.31 376.48 115.11 376.94 122.89 C 384.76 123.34 392.63 123.90 400.44 122.87 C 400.81 115.26 400.81 107.65 400.71 100.05 C 392.92 99.46 385.11 99.59 377.31 99.55 M 404.18 99.85 C 403.71 107.80 403.63 115.76 404.03 123.72 C 411.85 123.60 419.68 123.91 427.50 123.77 C 427.90 115.91 427.76 108.05 427.75 100.19 C 419.90 99.76 412.04 99.59 404.18 99.85 M 431.37 100.36 C 431.04 108.20 431.09 116.05 431.19 123.89 C 439.08 124.00 446.97 124.19 454.85 123.97 C 455.02 116.15 455.12 108.33 454.66 100.51 C 446.90 100.13 439.14 100.15 431.37 100.36 M 458.27 100.78 C 458.48 108.42 457.36 116.13 458.50 123.72 C 466.10 125.24 473.99 124.00 481.71 124.40 C 482.28 116.60 482.20 108.77 481.89 100.96 C 474.03 100.40 466.13 99.97 458.27 100.78 M 485.39 101.00 C 485.71 108.51 484.55 116.08 485.69 123.53 C 487.87 124.71 490.43 124.63 492.85 124.70 C 498.21 124.63 503.58 124.59 508.95 124.56 C 509.39 116.71 509.43 108.84 508.98 100.99 C 501.12 100.56 493.25 100.52 485.39 101.00 M 539.51 101.35 C 539.58 109.19 539.46 117.02 539.44 124.85 C 547.42 125.50 555.46 125.82 563.44 124.94 C 563.23 117.41 564.08 109.84 563.28 102.35 C 560.93 101.17 558.21 101.36 555.67 101.31 C 550.28 101.41 544.90 101.37 539.51 101.35 M 567.06 101.44 C 566.42 109.44 566.47 117.48 566.79 125.49 C 573.25 125.40 579.71 125.73 586.17 125.62 C 587.60 125.42 590.19 125.75 590.34 123.72 C 591.03 116.35 590.40 108.92 590.56 101.53 C 582.72 101.59 574.89 101.52 567.06 101.44 M 594.15 101.87 C 593.49 109.79 593.49 117.75 593.94 125.68 C 600.67 125.44 607.39 126.00 614.11 126.08 C 615.64 126.30 617.53 125.54 617.40 123.72 C 618.15 116.47 617.46 109.15 617.72 101.88 C 609.86 101.63 602.00 101.55 594.15 101.87 M 621.36 102.26 C 620.72 110.10 620.70 117.97 621.08 125.82 C 628.96 126.25 636.87 126.44 644.76 126.12 C 644.84 118.20 645.08 110.29 644.92 102.37 C 637.07 102.34 629.21 101.97 621.36 102.26 M 648.31 102.83 C 648.13 110.60 647.86 118.37 648.07 126.15 C 655.93 126.80 663.81 126.52 671.69 126.52 C 672.28 118.73 672.40 110.90 671.90 103.10 C 664.06 102.36 656.16 102.13 648.31 102.83 M 675.37 103.04 C 675.33 110.88 675.11 118.72 675.31 126.56 C 683.15 126.86 691.01 126.77 698.86 126.65 C 699.43 118.89 699.47 111.09 698.75 103.34 C 690.98 102.56 683.16 102.45 675.37 103.04 M 702.51 103.23 C 702.41 111.09 702.30 118.95 702.24 126.82 C 710.16 127.49 718.11 127.42 726.03 126.92 C 726.09 119.23 727.51 111.25 725.37 103.74 C 717.81 102.63 710.12 103.08 702.51 103.23 M 730.18 103.38 C 729.44 111.21 729.22 119.09 729.82 126.93 C 737.61 127.38 745.42 127.41 753.20 126.96 C 753.24 119.42 754.47 111.69 752.65 104.29 C 745.33 102.53 737.65 103.84 730.18 103.38 M 784.17 104.09 C 783.66 111.92 783.50 119.78 784.29 127.59 C 792.03 127.95 799.79 128.33 807.54 127.80 C 807.65 119.95 807.87 112.10 807.61 104.25 C 799.80 103.86 791.98 103.82 784.17 104.09 M 811.31 104.25 C 811.09 112.12 810.74 119.99 811.03 127.86 C 818.74 127.67 826.71 129.57 834.25 127.46 C 835.57 119.87 834.92 112.09 834.76 104.43 C 826.94 104.43 819.12 104.39 811.31 104.25 M 892.59 105.41 C 892.57 113.40 891.90 121.39 892.44 129.38 C 900.28 129.30 908.12 129.36 915.96 129.45 C 916.77 121.45 916.37 113.41 916.43 105.39 C 908.48 105.39 900.54 105.25 892.59 105.41 M 920.35 106.29 C 919.11 113.94 919.44 121.77 920.00 129.47 C 927.71 129.23 935.43 129.37 943.14 129.54 C 943.62 121.71 943.54 113.87 943.50 106.03 C 935.82 105.68 927.90 104.34 920.35 106.29 M 973.65 106.40 C 973.88 114.17 973.82 121.95 973.62 129.73 C 981.59 130.19 989.59 130.16 997.57 129.81 C 997.33 122.17 998.38 114.43 997.17 106.86 C 989.43 105.35 981.47 106.37 973.65 106.40 M 1001.37 106.36 C 1001.07 114.25 1000.62 122.15 1001.06 130.05 C 1008.94 130.39 1016.83 130.63 1024.71 130.04 C 1024.82 122.14 1025.43 114.19 1024.18 106.34 C 1016.58 106.56 1008.97 106.42 1001.37 106.36 M 1028.17 106.77 C 1028.21 114.67 1027.74 122.58 1028.20 130.48 C 1036.04 130.62 1043.88 130.68 1051.72 130.56 C 1052.33 122.67 1052.45 114.75 1052.01 106.85 C 1044.07 106.55 1036.11 106.39 1028.17 106.77 M 1055.42 107.24 C 1055.09 114.99 1055.07 122.76 1055.39 130.52 C 1062.56 130.62 1069.76 131.50 1076.91 130.70 C 1078.79 130.65 1078.89 128.46 1079.06 127.07 C 1079.61 120.42 1079.14 113.74 1078.98 107.08 C 1071.12 107.04 1063.26 106.77 1055.42 107.24 M 1109.86 107.41 C 1109.34 115.30 1109.48 123.21 1109.31 131.12 C 1117.24 131.71 1125.19 131.39 1133.13 131.58 C 1133.71 123.83 1133.44 116.05 1133.44 108.29 C 1125.60 107.50 1117.73 107.52 1109.86 107.41 M 1164.39 108.42 C 1162.71 116.25 1163.95 124.35 1163.63 132.30 C 1171.59 132.31 1179.56 132.43 1187.53 132.21 C 1187.64 124.28 1187.71 116.34 1187.60 108.40 C 1179.86 108.89 1172.06 107.34 1164.39 108.42 M 1191.15 108.75 C 1191.00 116.54 1190.92 124.33 1191.03 132.12 C 1198.92 132.43 1206.83 132.54 1214.72 132.03 C 1214.81 124.34 1215.05 116.65 1214.93 108.96 C 1207.01 108.38 1199.06 108.16 1191.15 108.75 M 268.07 125.86 C 267.62 133.67 267.50 141.50 268.22 149.30 C 276.05 149.39 283.89 149.83 291.70 149.12 C 291.59 141.62 292.63 134.01 291.26 126.58 C 289.48 125.57 287.38 125.48 285.39 125.38 C 279.61 125.21 273.83 125.43 268.07 125.86 M 295.11 126.08 C 294.69 133.92 294.64 141.79 295.37 149.61 C 303.11 149.67 310.85 149.76 318.59 149.75 C 319.00 141.89 319.26 134.02 318.84 126.16 C 310.94 125.68 303.01 125.59 295.11 126.08 M 322.55 126.22 C 322.27 134.03 322.17 141.85 322.36 149.66 C 330.18 150.17 338.02 150.17 345.85 149.94 C 346.30 142.05 346.37 134.14 345.91 126.25 C 338.12 126.18 330.33 125.89 322.55 126.22 M 349.56 126.46 C 349.30 134.21 349.20 141.96 349.34 149.71 C 357.17 150.41 365.06 150.66 372.91 150.04 C 373.37 142.20 373.48 134.34 372.76 126.51 C 365.03 126.39 357.29 126.22 349.56 126.46 M 376.46 126.47 C 376.50 134.48 376.41 142.50 376.36 150.51 C 384.37 150.55 392.37 150.68 400.38 150.49 C 400.43 142.53 400.55 134.57 400.45 126.60 C 392.45 126.57 384.45 126.58 376.46 126.47 M 404.10 126.98 C 403.66 134.88 403.29 142.82 404.00 150.72 C 411.69 150.84 419.38 150.97 427.07 150.90 C 427.76 143.02 427.79 135.09 427.21 127.20 C 419.50 127.16 411.80 126.88 404.10 126.98 M 431.53 127.68 C 429.95 135.25 430.75 143.06 430.88 150.73 C 438.76 151.25 446.67 151.50 454.55 150.79 C 454.61 143.02 454.72 135.25 454.46 127.48 C 446.82 127.56 439.11 126.55 431.53 127.68 M 458.19 127.86 C 457.64 135.71 457.47 143.60 458.25 151.44 C 465.99 151.42 473.74 151.52 481.48 151.45 C 481.80 143.66 481.79 135.86 481.68 128.07 C 473.86 127.54 466.01 127.17 458.19 127.86 M 485.40 127.97 C 485.16 135.86 484.46 143.74 484.98 151.63 C 492.88 151.65 500.78 151.68 508.68 151.78 C 508.63 143.93 509.05 136.10 509.16 128.26 C 501.27 127.48 493.32 127.45 485.40 127.97 M 512.30 128.16 C 512.21 136.05 512.14 143.95 512.19 151.84 C 520.03 152.26 527.89 152.49 535.73 152.00 C 535.93 144.13 536.38 136.24 535.76 128.37 C 527.94 128.13 520.12 128.24 512.30 128.16 M 539.39 128.54 C 539.18 136.34 539.23 144.14 539.24 151.94 C 547.10 152.33 555.00 152.81 562.86 152.07 C 563.35 144.34 563.41 136.59 562.88 128.87 C 555.05 128.51 547.22 128.47 539.39 128.54 M 566.48 129.22 C 566.80 136.35 565.70 143.53 566.58 150.64 C 566.71 152.28 568.76 152.33 570.00 152.54 C 576.56 153.10 583.16 152.65 589.74 152.63 C 590.53 144.80 590.71 136.92 589.98 129.09 C 582.15 128.63 574.30 128.53 566.48 129.22 M 594.09 129.11 C 593.48 136.98 593.12 144.89 593.78 152.77 C 601.54 152.22 609.45 154.15 617.10 152.40 C 618.02 144.77 617.29 137.03 617.39 129.35 C 609.62 129.10 601.85 128.96 594.09 129.11 M 620.95 129.36 C 620.70 135.90 620.29 142.46 620.51 149.02 C 620.73 150.37 620.41 152.30 622.06 152.86 C 625.97 153.82 630.04 153.40 634.03 153.52 C 637.33 153.51 640.74 153.86 643.96 152.97 C 644.70 151.48 644.47 149.67 644.68 148.05 C 644.59 141.86 644.57 135.66 644.64 129.47 C 636.74 129.44 628.85 129.42 620.95 129.36 M 675.06 129.85 C 674.59 137.78 674.61 145.72 674.83 153.66 C 682.72 153.70 690.62 153.76 698.51 153.70 C 698.71 145.89 699.38 138.08 698.95 130.26 C 691.00 129.59 683.02 129.61 675.06 129.85 M 729.57 132.28 C 728.87 139.67 729.50 147.11 729.39 154.52 C 737.22 154.44 745.06 154.54 752.89 154.63 C 753.58 146.67 753.49 138.68 753.21 130.70 C 746.46 130.66 739.72 130.21 732.98 130.48 C 731.78 130.67 729.60 130.62 729.57 132.28 M 756.58 131.22 C 756.55 137.81 755.96 144.42 756.37 151.00 C 756.33 152.65 757.07 154.74 759.09 154.56 C 766.04 155.13 773.03 154.65 780.00 154.98 C 780.33 147.05 780.64 139.10 780.03 131.18 C 772.22 130.75 764.37 130.20 756.58 131.22 M 783.63 131.39 C 783.55 139.17 783.65 146.95 783.48 154.72 C 791.42 155.42 799.39 155.41 807.33 154.77 C 807.33 147.10 807.47 139.44 807.54 131.77 C 799.59 130.89 791.59 131.01 783.63 131.39 M 838.09 131.53 C 837.46 139.52 837.45 147.55 837.89 155.56 C 845.80 155.62 853.72 155.88 861.62 155.29 C 861.61 147.47 861.70 139.65 861.68 131.83 C 853.82 131.46 845.95 131.55 838.09 131.53 M 810.86 131.55 C 810.73 139.28 810.54 147.02 810.44 154.75 C 818.44 155.74 826.52 155.67 834.56 155.19 C 834.49 147.42 834.56 139.66 834.68 131.89 C 826.75 131.27 818.80 131.41 810.86 131.55 M 865.16 132.11 C 864.78 139.96 864.71 147.83 865.16 155.68 C 872.96 156.27 880.81 156.47 888.62 155.69 C 888.87 147.90 889.07 140.11 888.93 132.32 C 881.01 132.09 873.08 131.65 865.16 132.11 M 919.35 136.61 C 919.07 143.23 919.29 149.86 919.20 156.48 C 927.18 156.54 935.15 156.54 943.13 156.70 C 943.41 148.75 943.40 140.80 943.30 132.85 C 936.18 132.73 929.05 132.16 921.94 132.60 C 919.68 132.36 919.47 135.00 919.35 136.61 M 1001.09 133.82 C 1000.66 141.58 1000.39 149.36 1000.88 157.13 C 1008.62 157.59 1016.39 157.85 1024.12 157.11 C 1024.67 149.44 1024.80 141.74 1024.14 134.07 C 1016.46 133.55 1008.76 133.14 1001.09 133.82 M 973.43 133.60 C 973.56 141.38 973.47 149.16 973.41 156.94 C 981.30 157.61 989.22 157.30 997.10 156.71 C 997.61 148.96 997.96 141.16 996.80 133.45 C 989.01 133.37 981.21 133.17 973.43 133.60 M 1028.11 134.11 C 1027.65 141.92 1027.48 149.75 1028.28 157.55 C 1036.02 157.77 1043.77 157.92 1051.51 157.60 C 1051.73 149.84 1051.89 142.08 1051.58 134.32 C 1043.77 133.65 1035.92 133.62 1028.11 134.11 M 1055.24 134.27 C 1054.97 141.96 1053.57 149.88 1055.53 157.44 C 1063.12 159.24 1071.02 158.10 1078.75 158.03 C 1078.70 150.13 1078.77 142.23 1078.70 134.34 C 1070.88 134.31 1063.06 134.30 1055.24 134.27 M 1082.33 134.37 C 1082.34 142.24 1082.06 150.11 1082.02 157.99 C 1089.86 158.63 1097.74 158.65 1105.61 158.24 C 1105.86 150.32 1106.68 142.38 1105.85 134.46 C 1098.01 134.41 1090.17 134.44 1082.33 134.37 M 1109.41 134.50 C 1109.36 142.50 1109.30 150.49 1109.34 158.49 C 1117.12 158.60 1124.91 158.71 1132.71 158.60 C 1133.22 151.37 1133.91 144.08 1133.17 136.85 C 1133.24 134.97 1131.03 134.69 1129.64 134.59 C 1122.90 134.36 1116.15 134.72 1109.41 134.50 M 1136.45 135.04 C 1136.43 142.90 1136.36 150.76 1136.38 158.62 C 1144.05 158.91 1151.93 160.38 1159.50 158.48 C 1161.29 150.76 1160.31 142.73 1160.13 134.88 C 1152.23 135.21 1144.33 134.59 1136.45 135.04 M 1163.78 135.29 C 1163.30 143.30 1163.49 151.33 1163.52 159.36 C 1171.32 159.34 1179.13 159.38 1186.94 159.49 C 1187.81 151.52 1187.46 143.49 1187.47 135.49 C 1179.57 135.40 1171.67 135.35 1163.78 135.29 M 1191.27 135.48 C 1190.08 143.47 1190.46 151.57 1190.80 159.60 C 1198.61 159.52 1206.43 159.55 1214.25 159.69 C 1214.70 151.67 1214.56 143.65 1214.58 135.62 C 1206.81 135.55 1199.04 135.50 1191.27 135.48 M 268.41 153.19 C 266.73 160.85 267.62 168.79 268.00 176.55 C 275.71 176.50 283.43 176.62 291.14 176.61 C 291.69 168.63 291.80 160.61 291.10 152.63 C 283.55 153.26 275.85 151.68 268.41 153.19 M 295.06 153.10 C 294.67 160.97 294.47 168.86 294.91 176.73 C 302.66 176.45 310.50 177.61 318.19 176.33 C 319.18 168.70 318.36 160.97 318.54 153.29 C 310.73 152.62 302.88 152.68 295.06 153.10 M 322.33 153.38 C 321.53 161.17 321.54 169.02 322.11 176.84 C 329.93 177.32 337.77 177.41 345.60 177.00 C 345.76 169.31 345.87 161.62 345.77 153.92 C 337.99 152.91 330.14 153.22 322.33 153.38 M 349.40 153.57 C 348.98 161.36 348.66 169.16 349.03 176.96 C 356.98 177.72 364.99 177.70 372.96 177.04 C 372.55 169.46 373.52 161.84 372.61 154.29 C 364.99 152.73 357.12 153.75 349.40 153.57 M 376.29 153.82 C 376.32 161.74 376.20 169.65 376.29 177.57 C 384.07 177.61 391.86 177.90 399.64 177.38 C 400.08 169.58 400.53 161.78 400.04 153.97 C 392.13 153.59 384.20 153.53 376.29 153.82 M 403.73 153.84 C 403.17 161.79 403.36 169.77 403.37 177.74 C 411.08 178.13 419.00 179.37 426.61 177.56 C 428.17 169.90 427.12 162.02 427.20 154.27 C 419.37 154.39 411.55 153.96 403.73 153.84 M 430.95 154.37 C 430.43 161.69 429.90 169.09 430.67 176.40 C 430.87 178.43 433.49 178.22 434.98 178.42 C 441.31 178.61 447.65 178.36 453.99 178.58 C 454.72 170.55 454.38 162.49 454.44 154.44 C 446.61 154.48 438.78 154.44 430.95 154.37 M 458.17 155.07 C 457.59 162.93 457.02 170.83 457.84 178.70 C 465.70 178.54 473.56 178.66 481.42 178.58 C 481.47 170.73 481.37 162.87 481.60 155.02 C 473.80 154.65 465.97 154.47 458.17 155.07 M 485.09 155.19 C 484.69 162.96 484.66 170.73 484.48 178.50 C 492.44 178.87 500.43 179.47 508.39 178.75 C 508.56 170.96 508.62 163.16 508.61 155.37 C 500.79 154.62 492.92 154.67 485.09 155.19 M 539.42 155.47 C 539.39 163.35 537.80 171.40 539.59 179.18 C 547.24 179.97 554.97 179.30 562.65 179.52 C 563.14 171.76 563.17 163.97 562.78 156.20 C 555.02 155.33 547.21 155.55 539.42 155.47 M 566.73 156.65 C 565.38 164.20 566.34 171.92 566.38 179.54 C 574.14 179.80 581.91 180.14 589.67 179.77 C 590.37 171.93 590.40 164.04 589.82 156.19 C 582.14 156.10 574.28 154.81 566.73 156.65 M 647.50 156.97 C 647.58 164.79 647.47 172.61 647.45 180.43 C 655.42 180.66 663.41 181.01 671.37 180.34 C 671.15 173.75 671.55 167.17 671.53 160.59 C 671.37 159.41 671.52 157.28 669.86 157.22 C 662.46 156.13 654.94 156.94 647.50 156.97 M 674.51 180.75 C 682.48 181.37 690.51 181.76 698.49 180.89 C 698.56 173.01 698.65 165.14 698.57 157.26 C 690.75 157.40 682.91 157.47 675.12 156.61 C 674.23 164.63 674.63 172.70 674.51 180.75 M 702.37 157.49 C 701.60 165.46 701.64 173.47 702.05 181.46 C 708.33 181.17 714.61 181.44 720.89 181.49 C 722.41 181.33 725.02 181.67 725.31 179.59 C 726.22 172.29 725.52 164.89 725.63 157.55 C 717.87 157.40 710.12 157.31 702.37 157.49 M 729.57 159.33 C 728.03 166.61 728.89 174.13 729.19 181.50 C 736.99 181.50 744.78 181.71 752.59 181.67 C 752.90 173.79 752.91 165.90 752.77 158.02 C 746.27 157.90 739.78 157.49 733.28 157.56 C 731.94 157.71 729.83 157.56 729.57 159.33 M 756.31 158.12 C 756.05 165.95 755.69 173.79 756.29 181.62 C 764.11 181.86 771.93 182.10 779.76 182.01 C 779.86 174.11 780.16 166.22 779.95 158.32 C 772.08 157.78 764.18 157.61 756.31 158.12 M 783.51 158.38 C 783.28 166.22 783.08 174.05 783.05 181.90 C 790.98 182.32 798.93 182.56 806.86 181.94 C 807.08 175.27 807.70 168.57 807.11 161.90 C 807.08 160.42 806.43 158.54 804.64 158.63 C 797.63 157.83 790.55 158.52 783.51 158.38 M 810.45 158.91 C 810.46 166.65 810.28 174.39 810.30 182.14 C 818.11 182.69 825.93 182.60 833.76 182.62 C 834.38 174.79 834.53 166.93 834.04 159.10 C 826.19 158.60 818.31 158.24 810.45 158.91 M 838.01 159.03 C 837.56 166.90 837.07 174.80 837.85 182.68 C 845.61 182.71 853.36 183.07 861.12 182.89 C 861.64 174.98 861.80 167.04 861.04 159.14 C 853.37 158.76 845.68 158.78 838.01 159.03 M 865.01 159.12 C 864.44 167.01 864.41 174.92 864.84 182.81 C 872.73 183.35 880.65 183.52 888.54 182.75 C 888.56 174.98 888.65 167.21 888.50 159.45 C 880.67 159.10 872.84 158.92 865.01 159.12 M 919.13 159.82 C 918.56 167.70 918.42 175.61 919.07 183.49 C 926.91 183.67 934.76 183.71 942.60 183.62 C 942.64 175.74 943.22 167.86 943.12 159.98 C 935.13 159.53 927.12 159.51 919.13 159.82 M 974.18 160.61 C 972.25 168.35 973.28 176.48 973.25 184.38 C 981.05 184.19 988.85 184.32 996.65 184.50 C 997.47 176.50 997.47 168.45 996.83 160.44 C 989.28 160.69 981.70 159.95 974.18 160.61 M 1028.16 162.13 C 1026.50 169.43 1027.85 177.07 1027.43 184.50 C 1035.42 184.90 1043.42 185.47 1051.41 184.78 C 1051.27 176.94 1051.66 169.08 1050.98 161.25 C 1043.43 161.30 1035.36 159.33 1028.16 162.13 M 1054.49 161.35 C 1054.66 169.13 1054.79 176.91 1054.45 184.69 C 1062.47 185.48 1070.55 185.45 1078.60 184.95 C 1078.49 177.26 1078.42 169.57 1078.64 161.89 C 1070.61 161.16 1062.54 161.21 1054.49 161.35 M 1081.53 161.88 C 1081.84 169.55 1081.73 177.23 1081.61 184.91 C 1089.56 185.93 1097.59 185.80 1105.56 185.08 C 1105.49 177.42 1105.63 169.77 1105.83 162.11 C 1097.74 161.70 1089.62 161.18 1081.53 161.88 M 1109.11 162.05 C 1109.09 169.89 1108.83 177.73 1109.07 185.56 C 1116.95 185.71 1124.87 186.39 1132.72 185.22 C 1132.69 177.56 1133.06 169.89 1132.79 162.23 C 1124.90 161.72 1117.00 161.73 1109.11 162.05 M 1136.46 162.39 C 1136.12 170.17 1135.74 177.96 1136.08 185.75 C 1143.91 186.32 1151.77 186.45 1159.60 185.80 C 1159.93 177.97 1160.05 170.12 1159.89 162.28 C 1152.08 162.34 1144.27 162.22 1136.46 162.39 M 1163.74 162.33 C 1163.26 170.37 1162.63 178.45 1163.63 186.48 C 1171.36 186.37 1179.10 186.49 1186.84 186.58 C 1187.54 178.56 1187.42 170.51 1187.17 162.47 C 1179.36 162.55 1171.54 162.48 1163.74 162.33 M 1190.60 163.17 C 1190.34 171.00 1190.09 178.85 1190.81 186.67 C 1198.51 186.66 1206.22 186.67 1213.92 186.77 C 1214.35 178.87 1214.41 170.96 1214.05 163.07 C 1206.23 162.67 1198.40 162.57 1190.60 163.17 M 1217.53 163.38 C 1217.56 171.15 1217.54 178.91 1217.30 186.67 C 1225.17 187.21 1233.07 187.34 1240.96 186.99 C 1241.63 179.11 1241.38 171.21 1241.51 163.32 C 1233.53 162.66 1225.50 162.62 1217.53 163.38 Z" />
</g>
<g id="#f4f4f4ff">
<path fill="#f4f4f4" stroke="#f4f4f4" stroke-width="0.09375" opacity="1.00" d=" M 269.11 44.03 C 277.06 43.99 285.01 44.03 292.96 44.14 C 292.95 51.99 292.58 59.84 292.54 67.69 C 284.55 68.49 276.51 68.31 268.53 67.55 C 268.61 59.71 268.56 51.86 269.11 44.03 Z" />
<path fill="#f4f4f4" stroke="#f4f4f4" stroke-width="0.09375" opacity="1.00" d=" M 323.78 45.51 C 325.53 44.29 327.79 44.44 329.82 44.36 C 335.49 44.43 341.15 44.82 346.82 45.10 C 347.20 52.91 346.95 60.72 346.56 68.51 C 338.75 68.53 330.95 68.49 323.15 68.55 C 323.13 60.88 322.48 53.10 323.78 45.51 Z" />
<path fill="#f4f4f4" stroke="#f4f4f4" stroke-width="0.09375" opacity="1.00" d=" M 350.41 45.30 C 358.22 44.54 366.09 44.65 373.92 45.15 C 374.35 53.03 374.04 60.93 373.71 68.81 C 365.93 68.87 358.14 68.75 350.36 68.59 C 350.06 60.83 350.10 53.06 350.41 45.30 Z" />
<path fill="#f4f4f4" stroke="#f4f4f4" stroke-width="0.09375" opacity="1.00" d=" M 404.49 45.97 C 412.50 45.34 420.57 45.09 428.56 46.15 C 428.54 53.81 428.28 61.46 428.37 69.12 C 420.35 69.78 412.29 69.57 404.27 69.07 C 404.48 61.37 404.75 53.67 404.49 45.97 Z" />
<path fill="#f4f4f4" stroke="#f4f4f4" stroke-width="0.09375" opacity="1.00" d=" M 431.67 46.16 C 439.63 45.22 447.65 45.72 455.61 46.28 C 455.71 53.95 455.53 61.62 455.43 69.28 C 447.50 70.02 439.52 69.90 431.58 69.40 C 431.50 61.65 431.53 53.90 431.67 46.16 Z" />
<path fill="#f4f4f4" stroke="#f4f4f4" stroke-width="0.09375" opacity="1.00" d=" M 513.36 47.22 C 521.21 46.30 529.10 46.67 536.97 47.02 C 537.06 54.88 537.04 62.75 536.70 70.61 C 528.90 70.75 521.10 70.71 513.31 70.48 C 512.50 62.74 512.65 54.96 513.36 47.22 Z" />
<path fill="#f4f4f4" stroke="#f4f4f4" stroke-width="0.09375" opacity="1.00" d=" M 540.38 47.33 C 548.21 46.64 556.07 46.64 563.92 47.17 C 564.40 55.11 564.31 63.07 563.81 71.01 C 555.94 71.12 548.08 70.85 540.22 70.73 C 540.09 62.93 540.14 55.12 540.38 47.33 Z" />
<path fill="#f4f4f4" stroke="#f4f4f4" stroke-width="0.09375" opacity="1.00" d=" M 567.53 47.41 C 573.31 47.35 579.10 47.25 584.89 47.30 C 586.82 47.40 588.90 47.40 590.62 48.43 C 591.39 49.86 591.37 51.53 591.45 53.10 C 591.48 59.20 591.07 65.28 590.70 71.36 C 582.87 71.45 575.05 71.35 567.23 70.93 C 567.34 63.09 567.48 55.25 567.53 47.41 Z" />
<path fill="#f4f4f4" stroke="#f4f4f4" stroke-width="0.09375" opacity="1.00" d=" M 594.87 48.68 C 597.38 47.41 600.28 47.49 603.03 47.51 C 608.06 47.60 613.09 47.89 618.12 48.14 C 618.66 55.94 618.54 63.77 617.71 71.54 C 609.94 71.72 602.16 71.57 594.39 71.50 C 594.73 63.90 593.88 56.23 594.87 48.68 Z" />
<path fill="#f4f4f4" stroke="#f4f4f4" stroke-width="0.09375" opacity="1.00" d=" M 622.08 48.04 C 629.78 47.76 637.48 47.77 645.18 48.13 C 645.86 55.99 645.67 63.89 645.14 71.75 C 637.41 71.89 629.68 71.74 621.95 71.71 C 621.23 63.83 621.48 55.91 622.08 48.04 Z" />
<path fill="#f4f4f4" stroke="#f4f4f4" stroke-width="0.09375" opacity="1.00" d=" M 649.27 48.36 C 657.05 48.29 664.84 48.26 672.62 48.43 C 672.79 56.27 672.47 64.11 672.67 71.94 C 664.80 72.41 656.90 72.33 649.03 71.90 C 648.59 64.06 648.53 56.19 649.27 48.36 Z" />
<path fill="#f4f4f4" stroke="#f4f4f4" stroke-width="0.09375" opacity="1.00" d=" M 676.17 48.52 C 684.05 48.45 691.93 48.36 699.80 48.86 C 699.89 56.61 699.77 64.36 699.61 72.12 C 691.76 72.78 683.86 72.75 676.02 72.08 C 675.66 64.23 675.84 56.37 676.17 48.52 Z" />
<path fill="#f4f4f4" stroke="#f4f4f4" stroke-width="0.09375" opacity="1.00" d=" M 703.29 49.00 C 711.15 48.44 719.03 48.69 726.89 49.21 C 727.26 56.89 726.94 64.56 726.61 72.23 C 718.86 73.45 711.02 72.77 703.23 72.42 C 702.70 64.62 703.11 56.81 703.29 49.00 Z" />
<path fill="#f4f4f4" stroke="#f4f4f4" stroke-width="0.09375" opacity="1.00" d=" M 757.78 49.40 C 765.49 49.46 773.21 49.29 780.92 49.39 C 781.13 55.94 781.47 62.51 781.15 69.07 C 780.99 70.63 781.01 73.27 778.82 73.21 C 771.70 73.78 764.53 73.19 757.39 73.52 C 757.24 65.48 756.93 57.42 757.78 49.40 Z" />
<path fill="#f4f4f4" stroke="#f4f4f4" stroke-width="0.09375" opacity="1.00" d=" M 785.24 50.39 C 792.77 48.92 800.50 50.08 808.12 49.72 C 808.54 57.74 808.38 65.77 807.85 73.79 C 800.19 73.65 792.52 73.50 784.86 73.53 C 784.47 65.85 783.43 57.94 785.24 50.39 Z" />
<path fill="#f4f4f4" stroke="#f4f4f4" stroke-width="0.09375" opacity="1.00" d=" M 839.04 50.71 C 846.93 50.09 854.85 50.17 862.74 50.89 C 862.66 58.59 862.53 66.28 862.47 73.98 C 854.61 74.60 846.73 74.31 838.88 73.90 C 838.51 66.17 838.68 58.44 839.04 50.71 Z" />
<path fill="#f4f4f4" stroke="#f4f4f4" stroke-width="0.09375" opacity="1.00" d=" M 893.12 51.08 C 900.95 50.68 908.82 50.61 916.65 51.24 C 917.36 59.00 917.39 66.81 916.64 74.58 C 908.79 74.95 900.92 74.89 893.07 74.70 C 892.70 66.83 892.74 58.95 893.12 51.08 Z" />
<path fill="#f4f4f4" stroke="#f4f4f4" stroke-width="0.09375" opacity="1.00" d=" M 920.42 51.41 C 928.21 51.12 936.00 51.31 943.79 51.51 C 944.44 59.29 944.29 67.11 943.87 74.91 C 935.99 75.38 928.08 75.43 920.22 74.74 C 919.87 66.97 920.09 59.18 920.42 51.41 Z" />
<path fill="#f4f4f4" stroke="#f4f4f4" stroke-width="0.09375" opacity="1.00" d=" M 1002.15 52.04 C 1009.97 51.80 1017.79 52.13 1025.62 52.42 C 1025.42 60.26 1025.63 68.12 1024.91 75.94 C 1017.10 76.21 1009.29 76.16 1001.50 75.64 C 1001.41 67.77 1001.50 59.89 1002.15 52.04 Z" />
<path fill="#f4f4f4" stroke="#f4f4f4" stroke-width="0.09375" opacity="1.00" d=" M 1029.33 52.39 C 1036.98 52.39 1044.63 52.55 1052.28 52.45 C 1052.88 60.46 1052.89 68.54 1051.76 76.51 C 1044.02 76.41 1036.27 76.22 1028.54 76.33 C 1028.52 68.34 1028.38 60.34 1029.33 52.39 Z" />
<path fill="#f4f4f4" stroke="#f4f4f4" stroke-width="0.09375" opacity="1.00" d=" M 1056.04 52.85 C 1063.90 52.34 1071.79 52.59 1079.63 53.31 C 1079.91 61.08 1079.94 68.89 1079.08 76.63 C 1071.38 76.64 1063.69 76.57 1056.00 76.60 C 1055.81 68.68 1055.82 60.76 1056.04 52.85 Z" />
<path fill="#f4f4f4" stroke="#f4f4f4" stroke-width="0.09375" opacity="1.00" d=" M 1083.42 53.24 C 1091.18 52.59 1098.98 52.69 1106.76 53.19 C 1106.93 61.07 1106.77 68.94 1106.54 76.82 C 1098.72 77.25 1090.89 76.79 1083.07 76.69 C 1082.80 68.87 1083.10 61.05 1083.42 53.24 Z" />
<path fill="#f4f4f4" stroke="#f4f4f4" stroke-width="0.09375" opacity="1.00" d=" M 1110.33 53.84 C 1118.16 52.89 1126.04 53.31 1133.88 53.90 C 1134.23 61.58 1134.18 69.27 1133.89 76.95 C 1125.95 77.61 1117.98 77.26 1110.05 76.93 C 1109.86 69.23 1110.13 61.53 1110.33 53.84 Z" />
<path fill="#f4f4f4" stroke="#f4f4f4" stroke-width="0.09375" opacity="1.00" d=" M 1164.42 54.07 C 1171.80 54.02 1179.31 53.05 1186.61 54.46 C 1188.46 54.81 1188.34 57.06 1188.49 58.50 C 1188.56 64.94 1188.11 71.38 1187.99 77.82 C 1180.11 77.94 1172.23 78.03 1164.35 77.73 C 1164.35 69.84 1164.49 61.95 1164.42 54.07 Z" />
<path fill="#f4f4f4" stroke="#f4f4f4" stroke-width="0.09375" opacity="1.00" d=" M 1191.61 54.47 C 1199.43 54.07 1207.26 54.05 1215.10 54.12 C 1215.79 62.02 1215.62 69.97 1215.04 77.87 C 1207.31 78.39 1199.55 78.35 1191.83 77.85 C 1191.22 70.07 1191.61 62.26 1191.61 54.47 Z" />
<path fill="#f4f4f4" stroke="#f4f4f4" stroke-width="0.09375" opacity="1.00" d=" M 268.42 71.35 C 276.34 71.08 284.26 71.31 292.18 71.34 C 292.69 79.24 292.39 87.16 291.85 95.05 C 284.03 95.49 276.19 95.24 268.38 94.76 C 268.52 86.96 268.46 79.15 268.42 71.35 Z" />
<path fill="#f4f4f4" stroke="#f4f4f4" stroke-width="0.09375" opacity="1.00" d=" M 295.92 71.37 C 303.78 71.47 311.64 71.49 319.50 71.60 C 319.54 79.48 319.64 87.36 319.00 95.22 C 311.33 95.81 303.64 95.18 295.96 95.43 C 295.30 87.42 295.38 79.38 295.92 71.37 Z" />
<path fill="#f4f4f4" stroke="#f4f4f4" stroke-width="0.09375" opacity="1.00" d=" M 350.45 72.21 C 358.20 71.71 365.96 72.11 373.72 72.34 C 373.85 80.34 373.85 88.33 373.57 96.33 C 365.73 96.26 357.88 96.21 350.05 95.78 C 349.68 87.92 349.95 80.06 350.45 72.21 Z" />
<path fill="#f4f4f4" stroke="#f4f4f4" stroke-width="0.09375" opacity="1.00" d=" M 404.32 72.96 C 412.18 72.39 420.06 72.58 427.92 73.11 C 428.36 80.95 428.26 88.81 427.55 96.62 C 419.70 96.72 411.84 96.83 404.01 96.23 C 403.99 88.47 404.29 80.72 404.32 72.96 Z" />
<path fill="#f4f4f4" stroke="#f4f4f4" stroke-width="0.09375" opacity="1.00" d=" M 458.90 73.31 C 466.62 73.43 474.34 73.48 482.06 73.24 C 482.67 81.18 482.45 89.15 482.06 97.10 C 474.42 97.26 466.70 97.86 459.12 96.64 C 457.41 89.00 458.69 81.06 458.90 73.31 Z" />
<path fill="#f4f4f4" stroke="#f4f4f4" stroke-width="0.09375" opacity="1.00" d=" M 486.10 74.00 C 493.93 73.29 501.80 73.38 509.63 73.95 C 509.61 79.09 509.55 84.22 509.60 89.36 C 509.54 92.02 509.69 94.82 508.55 97.30 C 504.77 97.90 500.93 97.59 497.13 97.64 C 493.52 97.58 489.79 97.84 486.32 96.67 C 484.38 89.27 485.95 81.52 486.10 74.00 Z" />
<path fill="#f4f4f4" stroke="#f4f4f4" stroke-width="0.09375" opacity="1.00" d=" M 621.84 75.03 C 629.53 74.93 637.21 75.12 644.91 75.12 C 645.46 83.06 645.36 91.02 644.89 98.96 C 637.01 99.10 629.13 99.10 621.25 98.94 C 621.21 90.97 621.15 82.99 621.84 75.03 Z" />
<path fill="#f4f4f4" stroke="#f4f4f4" stroke-width="0.09375" opacity="1.00" d=" M 648.43 75.78 C 656.26 74.64 664.17 75.18 672.01 75.85 C 672.61 83.71 672.40 91.60 672.12 99.47 C 664.20 99.22 656.26 99.40 648.35 98.84 C 648.53 91.15 648.65 83.47 648.43 75.78 Z" />
<path fill="#f4f4f4" stroke="#f4f4f4" stroke-width="0.09375" opacity="1.00" d=" M 703.02 76.11 C 710.88 75.70 718.75 75.69 726.60 76.36 C 726.50 84.14 726.47 91.92 726.42 99.70 C 718.46 100.22 710.49 99.91 702.54 99.57 C 702.55 91.75 702.56 83.92 703.02 76.11 Z" />
<path fill="#f4f4f4" stroke="#f4f4f4" stroke-width="0.09375" opacity="1.00" d=" M 838.86 77.35 C 846.75 77.57 854.69 77.19 862.54 78.33 C 862.52 86.05 862.74 93.80 861.72 101.47 C 853.91 101.44 846.10 101.58 838.31 100.95 C 838.44 93.08 838.36 85.20 838.86 77.35 Z" />
<path fill="#f4f4f4" stroke="#f4f4f4" stroke-width="0.09375" opacity="1.00" d=" M 920.07 78.78 C 927.94 78.06 935.85 78.55 943.74 78.45 C 944.15 86.29 943.85 94.15 943.67 102.00 C 935.81 102.40 927.94 102.38 920.08 101.95 C 919.66 94.23 919.74 86.50 920.07 78.78 Z" />
<path fill="#f4f4f4" stroke="#f4f4f4" stroke-width="0.09375" opacity="1.00" d=" M 1001.28 79.27 C 1009.19 79.32 1017.09 79.36 1025.00 79.25 C 1025.37 87.13 1025.33 95.03 1024.83 102.91 C 1016.98 103.45 1009.11 103.36 1001.27 102.77 C 1001.30 94.94 1001.44 87.10 1001.28 79.27 Z" />
<path fill="#f4f4f4" stroke="#f4f4f4" stroke-width="0.09375" opacity="1.00" d=" M 1028.79 79.39 C 1036.48 79.62 1044.17 79.62 1051.87 79.51 C 1052.68 87.48 1052.45 95.51 1051.74 103.48 C 1043.99 103.55 1036.24 103.51 1028.49 103.34 C 1028.36 95.36 1028.32 87.36 1028.79 79.39 Z" />
<path fill="#f4f4f4" stroke="#f4f4f4" stroke-width="0.09375" opacity="1.00" d=" M 1056.18 79.68 C 1063.82 79.63 1071.46 79.73 1079.09 80.16 C 1079.70 88.05 1079.55 95.96 1079.13 103.85 C 1071.38 103.76 1063.64 103.58 1055.89 103.52 C 1055.29 95.58 1055.19 87.59 1056.18 79.68 Z" />
<path fill="#f4f4f4" stroke="#f4f4f4" stroke-width="0.09375" opacity="1.00" d=" M 1083.08 80.29 C 1090.93 79.92 1098.80 79.98 1106.65 80.44 C 1106.17 88.19 1107.48 96.08 1105.95 103.73 C 1098.29 104.92 1090.51 104.02 1082.82 103.80 C 1082.41 95.97 1082.62 88.12 1083.08 80.29 Z" />
<path fill="#f4f4f4" stroke="#f4f4f4" stroke-width="0.09375" opacity="1.00" d=" M 1164.25 81.28 C 1172.05 80.74 1179.87 81.15 1187.68 81.44 C 1188.43 89.18 1188.34 96.98 1187.63 104.72 C 1179.84 105.21 1172.03 104.92 1164.24 104.67 C 1164.07 96.87 1163.97 89.07 1164.25 81.28 Z" />
<path fill="#f4f4f4" stroke="#f4f4f4" stroke-width="0.09375" opacity="1.00" d=" M 1191.43 81.50 C 1199.19 81.12 1206.97 81.41 1214.75 81.46 C 1215.44 89.27 1215.28 97.12 1214.91 104.95 C 1207.09 105.51 1199.23 105.58 1191.43 104.75 C 1191.20 97.00 1191.12 89.24 1191.43 81.50 Z" />
<path fill="#f4f4f4" stroke="#f4f4f4" stroke-width="0.09375" opacity="1.00" d=" M 1218.82 82.00 C 1226.54 81.24 1234.30 81.56 1242.04 82.00 C 1242.43 89.71 1242.38 97.44 1241.95 105.15 C 1234.09 105.81 1226.17 106.00 1218.34 104.88 C 1218.19 97.25 1218.27 89.61 1218.82 82.00 Z" />
<path fill="#f4f4f4" stroke="#f4f4f4" stroke-width="0.09375" opacity="1.00" d=" M 268.45 98.42 C 276.21 98.35 283.96 98.40 291.72 98.38 C 292.42 106.23 292.31 114.11 291.80 121.96 C 283.97 122.63 276.10 122.34 268.26 121.89 C 267.89 114.07 268.10 106.24 268.45 98.42 Z" />
<path fill="#f4f4f4" stroke="#f4f4f4" stroke-width="0.09375" opacity="1.00" d=" M 295.34 99.02 C 303.21 98.41 311.11 98.70 318.99 99.00 C 319.37 106.88 319.44 114.78 318.72 122.64 C 310.97 122.47 303.19 122.96 295.48 121.93 C 295.18 114.29 295.39 106.65 295.34 99.02 Z" />
<path fill="#f4f4f4" stroke="#f4f4f4" stroke-width="0.09375" opacity="1.00" d=" M 350.11 99.21 C 357.92 99.13 365.73 99.19 373.53 99.54 C 373.58 107.29 373.54 115.04 373.50 122.79 C 365.52 123.49 357.51 123.37 349.53 122.69 C 349.42 114.86 349.53 107.02 350.11 99.21 Z" />
<path fill="#f4f4f4" stroke="#f4f4f4" stroke-width="0.09375" opacity="1.00" d=" M 377.31 99.55 C 385.11 99.59 392.92 99.46 400.71 100.05 C 400.81 107.65 400.81 115.26 400.44 122.87 C 392.63 123.90 384.76 123.34 376.94 122.89 C 376.48 115.11 376.55 107.31 377.31 99.55 Z" />
<path fill="#f4f4f4" stroke="#f4f4f4" stroke-width="0.09375" opacity="1.00" d=" M 404.18 99.85 C 412.04 99.59 419.90 99.76 427.75 100.19 C 427.76 108.05 427.90 115.91 427.50 123.77 C 419.68 123.91 411.85 123.60 404.03 123.72 C 403.63 115.76 403.71 107.80 404.18 99.85 Z" />
<path fill="#f4f4f4" stroke="#f4f4f4" stroke-width="0.09375" opacity="1.00" d=" M 431.37 100.36 C 439.14 100.15 446.90 100.13 454.66 100.51 C 455.12 108.33 455.02 116.15 454.85 123.97 C 446.97 124.19 439.08 124.00 431.19 123.89 C 431.09 116.05 431.04 108.20 431.37 100.36 Z" />
<path fill="#f4f4f4" stroke="#f4f4f4" stroke-width="0.09375" opacity="1.00" d=" M 458.27 100.78 C 466.13 99.97 474.03 100.40 481.89 100.96 C 482.20 108.77 482.28 116.60 481.71 124.40 C 473.99 124.00 466.10 125.24 458.50 123.72 C 457.36 116.13 458.48 108.42 458.27 100.78 Z" />
<path fill="#f4f4f4" stroke="#f4f4f4" stroke-width="0.09375" opacity="1.00" d=" M 485.39 101.00 C 493.25 100.52 501.12 100.56 508.98 100.99 C 509.43 108.84 509.39 116.71 508.95 124.56 C 503.58 124.59 498.21 124.63 492.85 124.70 C 490.43 124.63 487.87 124.71 485.69 123.53 C 484.55 116.08 485.71 108.51 485.39 101.00 Z" />
<path fill="#f4f4f4" stroke="#f4f4f4" stroke-width="0.09375" opacity="1.00" d=" M 621.36 102.26 C 629.21 101.97 637.07 102.34 644.92 102.37 C 645.08 110.29 644.84 118.20 644.76 126.12 C 636.87 126.44 628.96 126.25 621.08 125.82 C 620.70 117.97 620.72 110.10 621.36 102.26 Z" />
<path fill="#f4f4f4" stroke="#f4f4f4" stroke-width="0.09375" opacity="1.00" d=" M 648.31 102.83 C 656.16 102.13 664.06 102.36 671.90 103.10 C 672.40 110.90 672.28 118.73 671.69 126.52 C 663.81 126.52 655.93 126.80 648.07 126.15 C 647.86 118.37 648.13 110.60 648.31 102.83 Z" />
<path fill="#f4f4f4" stroke="#f4f4f4" stroke-width="0.09375" opacity="1.00" d=" M 675.37 103.04 C 683.16 102.45 690.98 102.56 698.75 103.34 C 699.47 111.09 699.43 118.89 698.86 126.65 C 691.01 126.77 683.15 126.86 675.31 126.56 C 675.11 118.72 675.33 110.88 675.37 103.04 Z" />
<path fill="#f4f4f4" stroke="#f4f4f4" stroke-width="0.09375" opacity="1.00" d=" M 702.51 103.23 C 710.12 103.08 717.81 102.63 725.37 103.74 C 727.51 111.25 726.09 119.23 726.03 126.92 C 718.11 127.42 710.16 127.49 702.24 126.82 C 702.30 118.95 702.41 111.09 702.51 103.23 Z" />
<path fill="#f4f4f4" stroke="#f4f4f4" stroke-width="0.09375" opacity="1.00" d=" M 730.18 103.38 C 737.65 103.84 745.33 102.53 752.65 104.29 C 754.47 111.69 753.24 119.42 753.20 126.96 C 745.42 127.41 737.61 127.38 729.82 126.93 C 729.22 119.09 729.44 111.21 730.18 103.38 Z" />
<path fill="#f4f4f4" stroke="#f4f4f4" stroke-width="0.09375" opacity="1.00" d=" M 784.17 104.09 C 791.98 103.82 799.80 103.86 807.61 104.25 C 807.87 112.10 807.65 119.95 807.54 127.80 C 799.79 128.33 792.03 127.95 784.29 127.59 C 783.50 119.78 783.66 111.92 784.17 104.09 Z" />
<path fill="#f4f4f4" stroke="#f4f4f4" stroke-width="0.09375" opacity="1.00" d=" M 811.31 104.25 C 819.12 104.39 826.94 104.43 834.76 104.43 C 834.92 112.09 835.57 119.87 834.25 127.46 C 826.71 129.57 818.74 127.67 811.03 127.86 C 810.74 119.99 811.09 112.12 811.31 104.25 Z" />
<path fill="#f4f4f4" stroke="#f4f4f4" stroke-width="0.09375" opacity="1.00" d=" M 920.35 106.29 C 927.90 104.34 935.82 105.68 943.50 106.03 C 943.54 113.87 943.62 121.71 943.14 129.54 C 935.43 129.37 927.71 129.23 920.00 129.47 C 919.44 121.77 919.11 113.94 920.35 106.29 Z" />
<path fill="#f4f4f4" stroke="#f4f4f4" stroke-width="0.09375" opacity="1.00" d=" M 973.65 106.40 C 981.47 106.37 989.43 105.35 997.17 106.86 C 998.38 114.43 997.33 122.17 997.57 129.81 C 989.59 130.16 981.59 130.19 973.62 129.73 C 973.82 121.95 973.88 114.17 973.65 106.40 Z" />
<path fill="#f4f4f4" stroke="#f4f4f4" stroke-width="0.09375" opacity="1.00" d=" M 1001.37 106.36 C 1008.97 106.42 1016.58 106.56 1024.18 106.34 C 1025.43 114.19 1024.82 122.14 1024.71 130.04 C 1016.83 130.63 1008.94 130.39 1001.06 130.05 C 1000.62 122.15 1001.07 114.25 1001.37 106.36 Z" />
<path fill="#f4f4f4" stroke="#f4f4f4" stroke-width="0.09375" opacity="1.00" d=" M 1055.42 107.24 C 1063.26 106.77 1071.12 107.04 1078.98 107.08 C 1079.14 113.74 1079.61 120.42 1079.06 127.07 C 1078.89 128.46 1078.79 130.65 1076.91 130.70 C 1069.76 131.50 1062.56 130.62 1055.39 130.52 C 1055.07 122.76 1055.09 114.99 1055.42 107.24 Z" />
<path fill="#f4f4f4" stroke="#f4f4f4" stroke-width="0.09375" opacity="1.00" d=" M 1109.86 107.41 C 1117.73 107.52 1125.60 107.50 1133.44 108.29 C 1133.44 116.05 1133.71 123.83 1133.13 131.58 C 1125.19 131.39 1117.24 131.71 1109.31 131.12 C 1109.48 123.21 1109.34 115.30 1109.86 107.41 Z" />
<path fill="#f4f4f4" stroke="#f4f4f4" stroke-width="0.09375" opacity="1.00" d=" M 1191.15 108.75 C 1199.06 108.16 1207.01 108.38 1214.93 108.96 C 1215.05 116.65 1214.81 124.34 1214.72 132.03 C 1206.83 132.54 1198.92 132.43 1191.03 132.12 C 1190.92 124.33 1191.00 116.54 1191.15 108.75 Z" />
<path fill="#f4f4f4" stroke="#f4f4f4" stroke-width="0.09375" opacity="1.00" d=" M 268.07 125.86 C 273.83 125.43 279.61 125.21 285.39 125.38 C 287.38 125.48 289.48 125.57 291.26 126.58 C 292.63 134.01 291.59 141.62 291.70 149.12 C 283.89 149.83 276.05 149.39 268.22 149.30 C 267.50 141.50 267.62 133.67 268.07 125.86 Z" />
<path fill="#f4f4f4" stroke="#f4f4f4" stroke-width="0.09375" opacity="1.00" d=" M 295.11 126.08 C 303.01 125.59 310.94 125.68 318.84 126.16 C 319.26 134.02 319.00 141.89 318.59 149.75 C 310.85 149.76 303.11 149.67 295.37 149.61 C 294.64 141.79 294.69 133.92 295.11 126.08 Z" />
<path fill="#f4f4f4" stroke="#f4f4f4" stroke-width="0.09375" opacity="1.00" d=" M 322.55 126.22 C 330.33 125.89 338.12 126.18 345.91 126.25 C 346.37 134.14 346.30 142.05 345.85 149.94 C 338.02 150.17 330.18 150.17 322.36 149.66 C 322.17 141.85 322.27 134.03 322.55 126.22 Z" />
<path fill="#f4f4f4" stroke="#f4f4f4" stroke-width="0.09375" opacity="1.00" d=" M 349.56 126.46 C 357.29 126.22 365.03 126.39 372.76 126.51 C 373.48 134.34 373.37 142.20 372.91 150.04 C 365.06 150.66 357.17 150.41 349.34 149.71 C 349.20 141.96 349.30 134.21 349.56 126.46 Z" />
<path fill="#f4f4f4" stroke="#f4f4f4" stroke-width="0.09375" opacity="1.00" d=" M 404.10 126.98 C 411.80 126.88 419.50 127.16 427.21 127.20 C 427.79 135.09 427.76 143.02 427.07 150.90 C 419.38 150.97 411.69 150.84 404.00 150.72 C 403.29 142.82 403.66 134.88 404.10 126.98 Z" />
<path fill="#f4f4f4" stroke="#f4f4f4" stroke-width="0.09375" opacity="1.00" d=" M 431.53 127.68 C 439.11 126.55 446.82 127.56 454.46 127.48 C 454.72 135.25 454.61 143.02 454.55 150.79 C 446.67 151.50 438.76 151.25 430.88 150.73 C 430.75 143.06 429.95 135.25 431.53 127.68 Z" />
<path fill="#f4f4f4" stroke="#f4f4f4" stroke-width="0.09375" opacity="1.00" d=" M 458.19 127.86 C 466.01 127.17 473.86 127.54 481.68 128.07 C 481.79 135.86 481.80 143.66 481.48 151.45 C 473.74 151.52 465.99 151.42 458.25 151.44 C 457.47 143.60 457.64 135.71 458.19 127.86 Z" />
<path fill="#f4f4f4" stroke="#f4f4f4" stroke-width="0.09375" opacity="1.00" d=" M 512.30 128.16 C 520.12 128.24 527.94 128.13 535.76 128.37 C 536.38 136.24 535.93 144.13 535.73 152.00 C 527.89 152.49 520.03 152.26 512.19 151.84 C 512.14 143.95 512.21 136.05 512.30 128.16 Z" />
<path fill="#f4f4f4" stroke="#f4f4f4" stroke-width="0.09375" opacity="1.00" d=" M 539.39 128.54 C 547.22 128.47 555.05 128.51 562.88 128.87 C 563.41 136.59 563.35 144.34 562.86 152.07 C 555.00 152.81 547.10 152.33 539.24 151.94 C 539.23 144.14 539.18 136.34 539.39 128.54 Z" />
<path fill="#f4f4f4" stroke="#f4f4f4" stroke-width="0.09375" opacity="1.00" d=" M 566.48 129.22 C 574.30 128.53 582.15 128.63 589.98 129.09 C 590.71 136.92 590.53 144.80 589.74 152.63 C 583.16 152.65 576.56 153.10 570.00 152.54 C 568.76 152.33 566.71 152.28 566.58 150.64 C 565.70 143.53 566.80 136.35 566.48 129.22 Z" />
<path fill="#f4f4f4" stroke="#f4f4f4" stroke-width="0.09375" opacity="1.00" d=" M 594.09 129.11 C 601.85 128.96 609.62 129.10 617.39 129.35 C 617.29 137.03 618.02 144.77 617.10 152.40 C 609.45 154.15 601.54 152.22 593.78 152.77 C 593.12 144.89 593.48 136.98 594.09 129.11 Z" />
<path fill="#f4f4f4" stroke="#f4f4f4" stroke-width="0.09375" opacity="1.00" d=" M 756.58 131.22 C 764.37 130.20 772.22 130.75 780.03 131.18 C 780.64 139.10 780.33 147.05 780.00 154.98 C 773.03 154.65 766.04 155.13 759.09 154.56 C 757.07 154.74 756.33 152.65 756.37 151.00 C 755.96 144.42 756.55 137.81 756.58 131.22 Z" />
<path fill="#f4f4f4" stroke="#f4f4f4" stroke-width="0.09375" opacity="1.00" d=" M 783.63 131.39 C 791.59 131.01 799.59 130.89 807.54 131.77 C 807.47 139.44 807.33 147.10 807.33 154.77 C 799.39 155.41 791.42 155.42 783.48 154.72 C 783.65 146.95 783.55 139.17 783.63 131.39 Z" />
<path fill="#f4f4f4" stroke="#f4f4f4" stroke-width="0.09375" opacity="1.00" d=" M 865.16 132.11 C 873.08 131.65 881.01 132.09 888.93 132.32 C 889.07 140.11 888.87 147.90 888.62 155.69 C 880.81 156.47 872.96 156.27 865.16 155.68 C 864.71 147.83 864.78 139.96 865.16 132.11 Z" />
<path fill="#f4f4f4" stroke="#f4f4f4" stroke-width="0.09375" opacity="1.00" d=" M 1001.09 133.82 C 1008.76 133.14 1016.46 133.55 1024.14 134.07 C 1024.80 141.74 1024.67 149.44 1024.12 157.11 C 1016.39 157.85 1008.62 157.59 1000.88 157.13 C 1000.39 149.36 1000.66 141.58 1001.09 133.82 Z" />
<path fill="#f4f4f4" stroke="#f4f4f4" stroke-width="0.09375" opacity="1.00" d=" M 1028.11 134.11 C 1035.92 133.62 1043.77 133.65 1051.58 134.32 C 1051.89 142.08 1051.73 149.84 1051.51 157.60 C 1043.77 157.92 1036.02 157.77 1028.28 157.55 C 1027.48 149.75 1027.65 141.92 1028.11 134.11 Z" />
<path fill="#f4f4f4" stroke="#f4f4f4" stroke-width="0.09375" opacity="1.00" d=" M 268.41 153.19 C 275.85 151.68 283.55 153.26 291.10 152.63 C 291.80 160.61 291.69 168.63 291.14 176.61 C 283.43 176.62 275.71 176.50 268.00 176.55 C 267.62 168.79 266.73 160.85 268.41 153.19 Z" />
<path fill="#f4f4f4" stroke="#f4f4f4" stroke-width="0.09375" opacity="1.00" d=" M 295.06 153.10 C 302.88 152.68 310.73 152.62 318.54 153.29 C 318.36 160.97 319.18 168.70 318.19 176.33 C 310.50 177.61 302.66 176.45 294.91 176.73 C 294.47 168.86 294.67 160.97 295.06 153.10 Z" />
<path fill="#f4f4f4" stroke="#f4f4f4" stroke-width="0.09375" opacity="1.00" d=" M 322.33 153.38 C 330.14 153.22 337.99 152.91 345.77 153.92 C 345.87 161.62 345.76 169.31 345.60 177.00 C 337.77 177.41 329.93 177.32 322.11 176.84 C 321.54 169.02 321.53 161.17 322.33 153.38 Z" />
<path fill="#f4f4f4" stroke="#f4f4f4" stroke-width="0.09375" opacity="1.00" d=" M 349.40 153.57 C 357.12 153.75 364.99 152.73 372.61 154.29 C 373.52 161.84 372.55 169.46 372.96 177.04 C 364.99 177.70 356.98 177.72 349.03 176.96 C 348.66 169.16 348.98 161.36 349.40 153.57 Z" />
<path fill="#f4f4f4" stroke="#f4f4f4" stroke-width="0.09375" opacity="1.00" d=" M 458.17 155.07 C 465.97 154.47 473.80 154.65 481.60 155.02 C 481.37 162.87 481.47 170.73 481.42 178.58 C 473.56 178.66 465.70 178.54 457.84 178.70 C 457.02 170.83 457.59 162.93 458.17 155.07 Z" />
<path fill="#f4f4f4" stroke="#f4f4f4" stroke-width="0.09375" opacity="1.00" d=" M 485.09 155.19 C 492.92 154.67 500.79 154.62 508.61 155.37 C 508.62 163.16 508.56 170.96 508.39 178.75 C 500.43 179.47 492.44 178.87 484.48 178.50 C 484.66 170.73 484.69 162.96 485.09 155.19 Z" />
<path fill="#f4f4f4" stroke="#f4f4f4" stroke-width="0.09375" opacity="1.00" d=" M 539.42 155.47 C 547.21 155.55 555.02 155.33 562.78 156.20 C 563.17 163.97 563.14 171.76 562.65 179.52 C 554.97 179.30 547.24 179.97 539.59 179.18 C 537.80 171.40 539.39 163.35 539.42 155.47 Z" />
<path fill="#f4f4f4" stroke="#f4f4f4" stroke-width="0.09375" opacity="1.00" d=" M 566.73 156.65 C 574.28 154.81 582.14 156.10 589.82 156.19 C 590.40 164.04 590.37 171.93 589.67 179.77 C 581.91 180.14 574.14 179.80 566.38 179.54 C 566.34 171.92 565.38 164.20 566.73 156.65 Z" />
<path fill="#f4f4f4" stroke="#f4f4f4" stroke-width="0.09375" opacity="1.00" d=" M 647.50 156.97 C 654.94 156.94 662.46 156.13 669.86 157.22 C 671.52 157.28 671.37 159.41 671.53 160.59 C 671.55 167.17 671.15 173.75 671.37 180.34 C 663.41 181.01 655.42 180.66 647.45 180.43 C 647.47 172.61 647.58 164.79 647.50 156.97 Z" />
<path fill="#f4f4f4" stroke="#f4f4f4" stroke-width="0.09375" opacity="1.00" d=" M 702.37 157.49 C 710.12 157.31 717.87 157.40 725.63 157.55 C 725.52 164.89 726.22 172.29 725.31 179.59 C 725.02 181.67 722.41 181.33 720.89 181.49 C 714.61 181.44 708.33 181.17 702.05 181.46 C 701.64 173.47 701.60 165.46 702.37 157.49 Z" />
<path fill="#f4f4f4" stroke="#f4f4f4" stroke-width="0.09375" opacity="1.00" d=" M 729.57 159.33 C 729.83 157.56 731.94 157.71 733.28 157.56 C 739.78 157.49 746.27 157.90 752.77 158.02 C 752.91 165.90 752.90 173.79 752.59 181.67 C 744.78 181.71 736.99 181.50 729.19 181.50 C 728.89 174.13 728.03 166.61 729.57 159.33 Z" />
<path fill="#f4f4f4" stroke="#f4f4f4" stroke-width="0.09375" opacity="1.00" d=" M 756.31 158.12 C 764.18 157.61 772.08 157.78 779.95 158.32 C 780.16 166.22 779.86 174.11 779.76 182.01 C 771.93 182.10 764.11 181.86 756.29 181.62 C 755.69 173.79 756.05 165.95 756.31 158.12 Z" />
<path fill="#f4f4f4" stroke="#f4f4f4" stroke-width="0.09375" opacity="1.00" d=" M 783.51 158.38 C 790.55 158.52 797.63 157.83 804.64 158.63 C 806.43 158.54 807.08 160.42 807.11 161.90 C 807.70 168.57 807.08 175.27 806.86 181.94 C 798.93 182.56 790.98 182.32 783.05 181.90 C 783.08 174.05 783.28 166.22 783.51 158.38 Z" />
<path fill="#f4f4f4" stroke="#f4f4f4" stroke-width="0.09375" opacity="1.00" d=" M 810.45 158.91 C 818.31 158.24 826.19 158.60 834.04 159.10 C 834.53 166.93 834.38 174.79 833.76 182.62 C 825.93 182.60 818.11 182.69 810.30 182.14 C 810.28 174.39 810.46 166.65 810.45 158.91 Z" />
<path fill="#f4f4f4" stroke="#f4f4f4" stroke-width="0.09375" opacity="1.00" d=" M 838.01 159.03 C 845.68 158.78 853.37 158.76 861.04 159.14 C 861.80 167.04 861.64 174.98 861.12 182.89 C 853.36 183.07 845.61 182.71 837.85 182.68 C 837.07 174.80 837.56 166.90 838.01 159.03 Z" />
<path fill="#f4f4f4" stroke="#f4f4f4" stroke-width="0.09375" opacity="1.00" d=" M 865.01 159.12 C 872.84 158.92 880.67 159.10 888.50 159.45 C 888.65 167.21 888.56 174.98 888.54 182.75 C 880.65 183.52 872.73 183.35 864.84 182.81 C 864.41 174.92 864.44 167.01 865.01 159.12 Z" />
<path fill="#f4f4f4" stroke="#f4f4f4" stroke-width="0.09375" opacity="1.00" d=" M 974.18 160.61 C 981.70 159.95 989.28 160.69 996.83 160.44 C 997.47 168.45 997.47 176.50 996.65 184.50 C 988.85 184.32 981.05 184.19 973.25 184.38 C 973.28 176.48 972.25 168.35 974.18 160.61 Z" />
<path fill="#f4f4f4" stroke="#f4f4f4" stroke-width="0.09375" opacity="1.00" d=" M 1028.16 162.13 C 1035.36 159.33 1043.43 161.30 1050.98 161.25 C 1051.66 169.08 1051.27 176.94 1051.41 184.78 C 1043.42 185.47 1035.42 184.90 1027.43 184.50 C 1027.85 177.07 1026.50 169.43 1028.16 162.13 Z" />
<path fill="#f4f4f4" stroke="#f4f4f4" stroke-width="0.09375" opacity="1.00" d=" M 1054.49 161.35 C 1062.54 161.21 1070.61 161.16 1078.64 161.89 C 1078.42 169.57 1078.49 177.26 1078.60 184.95 C 1070.55 185.45 1062.47 185.48 1054.45 184.69 C 1054.79 176.91 1054.66 169.13 1054.49 161.35 Z" />
<path fill="#f4f4f4" stroke="#f4f4f4" stroke-width="0.09375" opacity="1.00" d=" M 1081.53 161.88 C 1089.62 161.18 1097.74 161.70 1105.83 162.11 C 1105.63 169.77 1105.49 177.42 1105.56 185.08 C 1097.59 185.80 1089.56 185.93 1081.61 184.91 C 1081.73 177.23 1081.84 169.55 1081.53 161.88 Z" />
<path fill="#f4f4f4" stroke="#f4f4f4" stroke-width="0.09375" opacity="1.00" d=" M 1109.11 162.05 C 1117.00 161.73 1124.90 161.72 1132.79 162.23 C 1133.06 169.89 1132.69 177.56 1132.72 185.22 C 1124.87 186.39 1116.95 185.71 1109.07 185.56 C 1108.83 177.73 1109.09 169.89 1109.11 162.05 Z" />
<path fill="#f4f4f4" stroke="#f4f4f4" stroke-width="0.09375" opacity="1.00" d=" M 1136.46 162.39 C 1144.27 162.22 1152.08 162.34 1159.89 162.28 C 1160.05 170.12 1159.93 177.97 1159.60 185.80 C 1151.77 186.45 1143.91 186.32 1136.08 185.75 C 1135.74 177.96 1136.12 170.17 1136.46 162.39 Z" />
<path fill="#f4f4f4" stroke="#f4f4f4" stroke-width="0.09375" opacity="1.00" d=" M 1190.60 163.17 C 1198.40 162.57 1206.23 162.67 1214.05 163.07 C 1214.41 170.96 1214.35 178.87 1213.92 186.77 C 1206.22 186.67 1198.51 186.66 1190.81 186.67 C 1190.09 178.85 1190.34 171.00 1190.60 163.17 Z" />
<path fill="#f4f4f4" stroke="#f4f4f4" stroke-width="0.09375" opacity="1.00" d=" M 1217.53 163.38 C 1225.50 162.62 1233.53 162.66 1241.51 163.32 C 1241.38 171.21 1241.63 179.11 1240.96 186.99 C 1233.07 187.34 1225.17 187.21 1217.30 186.67 C 1217.54 178.91 1217.56 171.15 1217.53 163.38 Z" />
</g>
<g id="#ebebebff">
<path fill="#ebebeb" stroke="#ebebeb" stroke-width="0.09375" opacity="1.00" d=" M 377.48 45.42 C 385.42 45.26 393.37 45.32 401.32 45.47 C 401.46 53.41 401.39 61.35 401.30 69.29 C 393.32 69.42 385.32 69.52 377.36 68.90 C 377.34 61.07 377.40 53.25 377.48 45.42 Z" />
<path fill="#ebebeb" stroke="#ebebeb" stroke-width="0.09375" opacity="1.00" d=" M 811.85 50.01 C 819.73 49.43 827.62 49.87 835.48 50.57 C 835.57 58.48 835.45 66.39 835.29 74.29 C 827.42 74.30 819.56 73.81 811.70 73.65 C 811.34 65.77 811.38 57.88 811.85 50.01 Z" />
<path fill="#ebebeb" stroke="#ebebeb" stroke-width="0.09375" opacity="1.00" d=" M 974.53 51.62 C 982.55 51.64 990.57 51.44 998.58 52.06 C 998.42 59.90 998.38 67.74 998.42 75.57 C 990.42 75.75 982.43 75.68 974.44 75.52 C 974.34 67.55 974.43 59.59 974.53 51.62 Z" />
<path fill="#ebebeb" stroke="#ebebeb" stroke-width="0.09375" opacity="1.00" d=" M 377.41 72.43 C 385.32 72.36 393.24 72.33 401.14 72.84 C 401.30 80.73 400.75 88.61 400.57 96.50 C 394.06 96.34 387.55 96.59 381.05 96.47 C 379.41 96.39 376.86 96.35 376.94 94.06 C 376.10 86.87 376.93 79.61 377.41 72.43 Z" />
<path fill="#ebebeb" stroke="#ebebeb" stroke-width="0.09375" opacity="1.00" d=" M 431.39 72.92 C 439.24 72.46 447.09 73.33 454.94 73.38 C 455.66 81.17 455.55 88.99 454.96 96.78 C 447.08 97.52 439.17 97.18 431.29 96.58 C 431.32 88.69 431.40 80.81 431.39 72.92 Z" />
<path fill="#ebebeb" stroke="#ebebeb" stroke-width="0.09375" opacity="1.00" d=" M 539.92 74.24 C 547.89 74.29 555.87 74.31 563.85 74.42 C 563.80 82.25 563.65 90.07 563.61 97.90 C 555.68 98.65 547.71 98.44 539.79 97.74 C 539.56 89.90 539.60 82.07 539.92 74.24 Z" />
<path fill="#ebebeb" stroke="#ebebeb" stroke-width="0.09375" opacity="1.00" d=" M 729.87 76.31 C 737.81 76.30 745.75 76.35 753.70 76.44 C 754.02 84.25 753.56 92.06 753.58 99.87 C 745.73 100.82 737.82 100.39 729.96 100.07 C 729.51 92.16 729.53 84.23 729.87 76.31 Z" />
<path fill="#ebebeb" stroke="#ebebeb" stroke-width="0.09375" opacity="1.00" d=" M 811.46 77.36 C 819.46 77.28 827.45 77.29 835.45 77.45 C 835.22 84.32 835.67 91.20 835.23 98.05 C 835.09 99.27 834.80 101.40 833.10 101.20 C 825.80 101.88 818.45 101.19 811.16 100.75 C 811.23 92.95 811.36 85.16 811.46 77.36 Z" />
<path fill="#ebebeb" stroke="#ebebeb" stroke-width="0.09375" opacity="1.00" d=" M 974.31 78.92 C 982.27 78.60 990.25 78.60 998.21 79.19 C 998.45 87.10 997.82 94.99 997.65 102.90 C 989.85 102.99 982.05 102.71 974.26 102.59 C 974.19 94.70 974.30 86.81 974.31 78.92 Z" />
<path fill="#ebebeb" stroke="#ebebeb" stroke-width="0.09375" opacity="1.00" d=" M 1136.89 80.83 C 1144.89 80.41 1152.91 80.49 1160.90 81.15 C 1161.01 88.99 1160.64 96.83 1160.62 104.67 C 1152.74 104.62 1144.87 104.55 1137.00 104.63 C 1136.49 96.70 1136.66 88.76 1136.89 80.83 Z" />
<path fill="#ebebeb" stroke="#ebebeb" stroke-width="0.09375" opacity="1.00" d=" M 322.82 98.96 C 330.72 98.58 338.64 98.57 346.53 99.18 C 346.15 106.85 347.07 114.59 346.08 122.20 C 343.89 123.30 341.35 123.03 338.99 123.01 C 333.59 122.74 328.18 122.62 322.77 122.67 C 322.21 114.78 322.31 106.86 322.82 98.96 Z" />
<path fill="#ebebeb" stroke="#ebebeb" stroke-width="0.09375" opacity="1.00" d=" M 539.51 101.35 C 544.90 101.37 550.28 101.41 555.67 101.31 C 558.21 101.36 560.93 101.17 563.28 102.35 C 564.08 109.84 563.23 117.41 563.44 124.94 C 555.46 125.82 547.42 125.50 539.44 124.85 C 539.46 117.02 539.58 109.19 539.51 101.35 Z" />
<path fill="#ebebeb" stroke="#ebebeb" stroke-width="0.09375" opacity="1.00" d=" M 567.06 101.44 C 574.89 101.52 582.72 101.59 590.56 101.53 C 590.40 108.92 591.03 116.35 590.34 123.72 C 590.19 125.75 587.60 125.42 586.17 125.62 C 579.71 125.73 573.25 125.40 566.79 125.49 C 566.47 117.48 566.42 109.44 567.06 101.44 Z" />
<path fill="#ebebeb" stroke="#ebebeb" stroke-width="0.09375" opacity="1.00" d=" M 594.15 101.87 C 602.00 101.55 609.86 101.63 617.72 101.88 C 617.46 109.15 618.15 116.47 617.40 123.72 C 617.53 125.54 615.64 126.30 614.11 126.08 C 607.39 126.00 600.67 125.44 593.94 125.68 C 593.49 117.75 593.49 109.79 594.15 101.87 Z" />
<path fill="#ebebeb" stroke="#ebebeb" stroke-width="0.09375" opacity="1.00" d=" M 1028.17 106.77 C 1036.11 106.39 1044.07 106.55 1052.01 106.85 C 1052.45 114.75 1052.33 122.67 1051.72 130.56 C 1043.88 130.68 1036.04 130.62 1028.20 130.48 C 1027.74 122.58 1028.21 114.67 1028.17 106.77 Z" />
<path fill="#ebebeb" stroke="#ebebeb" stroke-width="0.09375" opacity="1.00" d=" M 485.40 127.97 C 493.32 127.45 501.27 127.48 509.16 128.26 C 509.05 136.10 508.63 143.93 508.68 151.78 C 500.78 151.68 492.88 151.65 484.98 151.63 C 484.46 143.74 485.16 135.86 485.40 127.97 Z" />
<path fill="#ebebeb" stroke="#ebebeb" stroke-width="0.09375" opacity="1.00" d=" M 620.95 129.36 C 628.85 129.42 636.74 129.44 644.64 129.47 C 644.57 135.66 644.59 141.86 644.68 148.05 C 644.47 149.67 644.70 151.48 643.96 152.97 C 640.74 153.86 637.33 153.51 634.03 153.52 C 630.04 153.40 625.97 153.82 622.06 152.86 C 620.41 152.30 620.73 150.37 620.51 149.02 C 620.29 142.46 620.70 135.90 620.95 129.36 Z" />
<path fill="#ebebeb" stroke="#ebebeb" stroke-width="0.09375" opacity="1.00" d=" M 675.06 129.85 C 683.02 129.61 691.00 129.59 698.95 130.26 C 699.38 138.08 698.71 145.89 698.51 153.70 C 690.62 153.76 682.72 153.70 674.83 153.66 C 674.61 145.72 674.59 137.78 675.06 129.85 Z" />
<path fill="#ebebeb" stroke="#ebebeb" stroke-width="0.09375" opacity="1.00" d=" M 729.57 132.28 C 729.60 130.62 731.78 130.67 732.98 130.48 C 739.72 130.21 746.46 130.66 753.21 130.70 C 753.49 138.68 753.58 146.67 752.89 154.63 C 745.06 154.54 737.22 154.44 729.39 154.52 C 729.50 147.11 728.87 139.67 729.57 132.28 Z" />
<path fill="#ebebeb" stroke="#ebebeb" stroke-width="0.09375" opacity="1.00" d=" M 838.09 131.53 C 845.95 131.55 853.82 131.46 861.68 131.83 C 861.70 139.65 861.61 147.47 861.62 155.29 C 853.72 155.88 845.80 155.62 837.89 155.56 C 837.45 147.55 837.46 139.52 838.09 131.53 Z" />
<path fill="#ebebeb" stroke="#ebebeb" stroke-width="0.09375" opacity="1.00" d=" M 810.86 131.55 C 818.80 131.41 826.75 131.27 834.68 131.89 C 834.56 139.66 834.49 147.42 834.56 155.19 C 826.52 155.67 818.44 155.74 810.44 154.75 C 810.54 147.02 810.73 139.28 810.86 131.55 Z" />
<path fill="#ebebeb" stroke="#ebebeb" stroke-width="0.09375" opacity="1.00" d=" M 919.35 136.61 C 919.47 135.00 919.68 132.36 921.94 132.60 C 929.05 132.16 936.18 132.73 943.30 132.85 C 943.40 140.80 943.41 148.75 943.13 156.70 C 935.15 156.54 927.18 156.54 919.20 156.48 C 919.29 149.86 919.07 143.23 919.35 136.61 Z" />
<path fill="#ebebeb" stroke="#ebebeb" stroke-width="0.09375" opacity="1.00" d=" M 973.43 133.60 C 981.21 133.17 989.01 133.37 996.80 133.45 C 997.96 141.16 997.61 148.96 997.10 156.71 C 989.22 157.30 981.30 157.61 973.41 156.94 C 973.47 149.16 973.56 141.38 973.43 133.60 Z" />
<path fill="#ebebeb" stroke="#ebebeb" stroke-width="0.09375" opacity="1.00" d=" M 1055.24 134.27 C 1063.06 134.30 1070.88 134.31 1078.70 134.34 C 1078.77 142.23 1078.70 150.13 1078.75 158.03 C 1071.02 158.10 1063.12 159.24 1055.53 157.44 C 1053.57 149.88 1054.97 141.96 1055.24 134.27 Z" />
<path fill="#ebebeb" stroke="#ebebeb" stroke-width="0.09375" opacity="1.00" d=" M 1082.33 134.37 C 1090.17 134.44 1098.01 134.41 1105.85 134.46 C 1106.68 142.38 1105.86 150.32 1105.61 158.24 C 1097.74 158.65 1089.86 158.63 1082.02 157.99 C 1082.06 150.11 1082.34 142.24 1082.33 134.37 Z" />
<path fill="#ebebeb" stroke="#ebebeb" stroke-width="0.09375" opacity="1.00" d=" M 1109.41 134.50 C 1116.15 134.72 1122.90 134.36 1129.64 134.59 C 1131.03 134.69 1133.24 134.97 1133.17 136.85 C 1133.91 144.08 1133.22 151.37 1132.71 158.60 C 1124.91 158.71 1117.12 158.60 1109.34 158.49 C 1109.30 150.49 1109.36 142.50 1109.41 134.50 Z" />
<path fill="#ebebeb" stroke="#ebebeb" stroke-width="0.09375" opacity="1.00" d=" M 1136.45 135.04 C 1144.33 134.59 1152.23 135.21 1160.13 134.88 C 1160.31 142.73 1161.29 150.76 1159.50 158.48 C 1151.93 160.38 1144.05 158.91 1136.38 158.62 C 1136.36 150.76 1136.43 142.90 1136.45 135.04 Z" />
<path fill="#ebebeb" stroke="#ebebeb" stroke-width="0.09375" opacity="1.00" d=" M 1163.78 135.29 C 1171.67 135.35 1179.57 135.40 1187.47 135.49 C 1187.46 143.49 1187.81 151.52 1186.94 159.49 C 1179.13 159.38 1171.32 159.34 1163.52 159.36 C 1163.49 151.33 1163.30 143.30 1163.78 135.29 Z" />
<path fill="#ebebeb" stroke="#ebebeb" stroke-width="0.09375" opacity="1.00" d=" M 1191.27 135.48 C 1199.04 135.50 1206.81 135.55 1214.58 135.62 C 1214.56 143.65 1214.70 151.67 1214.25 159.69 C 1206.43 159.55 1198.61 159.52 1190.80 159.60 C 1190.46 151.57 1190.08 143.47 1191.27 135.48 Z" />
<path fill="#ebebeb" stroke="#ebebeb" stroke-width="0.09375" opacity="1.00" d=" M 376.29 153.82 C 384.20 153.53 392.13 153.59 400.04 153.97 C 400.53 161.78 400.08 169.58 399.64 177.38 C 391.86 177.90 384.07 177.61 376.29 177.57 C 376.20 169.65 376.32 161.74 376.29 153.82 Z" />
<path fill="#ebebeb" stroke="#ebebeb" stroke-width="0.09375" opacity="1.00" d=" M 403.73 153.84 C 411.55 153.96 419.37 154.39 427.20 154.27 C 427.12 162.02 428.17 169.90 426.61 177.56 C 419.00 179.37 411.08 178.13 403.37 177.74 C 403.36 169.77 403.17 161.79 403.73 153.84 Z" />
<path fill="#ebebeb" stroke="#ebebeb" stroke-width="0.09375" opacity="1.00" d=" M 430.95 154.37 C 438.78 154.44 446.61 154.48 454.44 154.44 C 454.38 162.49 454.72 170.55 453.99 178.58 C 447.65 178.36 441.31 178.61 434.98 178.42 C 433.49 178.22 430.87 178.43 430.67 176.40 C 429.90 169.09 430.43 161.69 430.95 154.37 Z" />
<path fill="#ebebeb" stroke="#ebebeb" stroke-width="0.09375" opacity="1.00" d=" M 919.13 159.82 C 927.12 159.51 935.13 159.53 943.12 159.98 C 943.22 167.86 942.64 175.74 942.60 183.62 C 934.76 183.71 926.91 183.67 919.07 183.49 C 918.42 175.61 918.56 167.70 919.13 159.82 Z" />
<path fill="#ebebeb" stroke="#ebebeb" stroke-width="0.09375" opacity="1.00" d=" M 1163.74 162.33 C 1171.54 162.48 1179.36 162.55 1187.17 162.47 C 1187.42 170.51 1187.54 178.56 1186.84 186.58 C 1179.10 186.49 1171.36 186.37 1163.63 186.48 C 1162.63 178.45 1163.26 170.37 1163.74 162.33 Z" />
</g>
<g id="#e2e2e2ff">
<path fill="#e2e2e2" stroke="#e2e2e2" stroke-width="0.09375" opacity="1.00" d=" M 1137.43 53.53 C 1145.44 53.46 1153.48 53.25 1161.48 54.08 C 1161.33 61.88 1161.29 69.68 1161.34 77.48 C 1153.36 77.61 1145.38 77.54 1137.40 77.48 C 1137.26 69.50 1137.38 61.51 1137.43 53.53 Z" />
<path fill="#e2e2e2" stroke="#e2e2e2" stroke-width="0.09375" opacity="1.00" d=" M 323.22 71.51 C 331.02 71.63 338.83 71.71 346.64 71.57 C 346.66 79.59 346.64 87.62 346.52 95.64 C 338.59 95.70 330.66 95.58 322.73 95.65 C 322.50 87.60 322.32 79.53 323.22 71.51 Z" />
<path fill="#e2e2e2" stroke="#e2e2e2" stroke-width="0.09375" opacity="1.00" d=" M 892.52 78.27 C 900.53 77.54 908.54 78.54 916.56 78.37 C 916.66 86.24 916.57 94.11 916.52 101.98 C 908.51 102.51 900.52 101.64 892.52 101.84 C 892.53 93.98 892.64 86.12 892.52 78.27 Z" />
<path fill="#e2e2e2" stroke="#e2e2e2" stroke-width="0.09375" opacity="1.00" d=" M 892.59 105.41 C 900.54 105.25 908.48 105.39 916.43 105.39 C 916.37 113.41 916.77 121.45 915.96 129.45 C 908.12 129.36 900.28 129.30 892.44 129.38 C 891.90 121.39 892.57 113.40 892.59 105.41 Z" />
<path fill="#e2e2e2" stroke="#e2e2e2" stroke-width="0.09375" opacity="1.00" d=" M 1164.39 108.42 C 1172.06 107.34 1179.86 108.89 1187.60 108.40 C 1187.71 116.34 1187.64 124.28 1187.53 132.21 C 1179.56 132.43 1171.59 132.31 1163.63 132.30 C 1163.95 124.35 1162.71 116.25 1164.39 108.42 Z" />
<path fill="#e2e2e2" stroke="#e2e2e2" stroke-width="0.09375" opacity="1.00" d=" M 376.46 126.47 C 384.45 126.58 392.45 126.57 400.45 126.60 C 400.55 134.57 400.43 142.53 400.38 150.49 C 392.37 150.68 384.37 150.55 376.36 150.51 C 376.41 142.50 376.50 134.48 376.46 126.47 Z" />
<path fill="#e2e2e2" stroke="#e2e2e2" stroke-width="0.09375" opacity="1.00" d=" M 674.51 180.75 C 674.63 172.70 674.23 164.63 675.12 156.61 C 682.91 157.47 690.75 157.40 698.57 157.26 C 698.65 165.14 698.56 173.01 698.49 180.89 C 690.51 181.76 682.48 181.37 674.51 180.75 Z" />
</g>
<g id="#eaeaeaff">
<path fill="#eaeaea" stroke="#eaeaea" stroke-width="0.09375" opacity="1.00" d=" M 1247.00 134.71 C 1244.48 125.73 1244.64 116.28 1247.00 107.28 L 1247.00 134.71 Z" />
</g>
</svg>
